<svg width="50" height="51" viewBox="0 0 50 51" fill="none" xmlns="http://www.w3.org/2000/svg">
<path d="M24.8062 14.6774C24.8944 14.7432 25.156 14.9381 25.3231 15.0643C25.6575 15.3169 26.1369 15.6826 26.7131 16.1322C27.8675 17.0331 29.3997 18.2627 30.9258 19.5878C32.4623 20.9218 33.9451 22.3116 35.0274 23.5366C35.5706 24.1514 35.969 24.6757 36.2204 25.0926C36.3401 25.2912 36.4013 25.4245 36.432 25.4999C36.4013 25.5753 36.3401 25.7085 36.2204 25.9072C35.969 26.3241 35.5706 26.8485 35.0273 27.4632C33.945 28.688 32.4623 30.078 30.9258 31.412C29.3998 32.7372 27.8675 33.9668 26.7131 34.8676C26.1371 35.3172 25.1406 36.0699 24.8062 36.3224C23.8798 37.0049 23.6819 38.3091 24.3644 39.2355C25.0467 40.1618 26.3519 40.3589 27.2783 39.6766L27.2848 39.6718C27.6404 39.403 28.6846 38.6145 29.2766 38.1524C30.4659 37.2243 32.0587 35.9466 33.6576 34.5582C35.2461 33.1791 36.8883 31.6499 38.1498 30.2222C38.7784 29.5107 39.3565 28.7753 39.7887 28.0582C40.1865 27.3985 40.625 26.4918 40.625 25.4999C40.625 24.5078 40.1865 23.6012 39.7888 22.9414C39.3565 22.2243 38.7784 21.4891 38.1498 20.7776C36.8883 19.3499 35.2461 17.8207 33.6575 16.4415C32.0586 15.0533 30.4658 13.7756 29.2765 12.8474C28.6808 12.3825 28.1838 12.0033 27.8344 11.7395C27.6613 11.6087 27.3781 11.3977 27.2808 11.3251L27.2781 11.3233C26.3519 10.641 25.0465 10.838 24.3642 11.7645C23.6819 12.691 23.8798 13.9951 24.8062 14.6774Z" fill="url(#paint0_linear_8856_7842)"/>
<path opacity="0.4" d="M10.5186 11.1407C9.81717 11.4952 9.37508 12.2142 9.37508 13V38.0001C9.37508 38.786 9.81737 39.5049 10.5186 39.8593C11.2201 40.2139 12.0611 40.1435 12.694 39.6774L12.6992 39.6735C12.7992 39.5991 13.0797 39.3899 13.2513 39.2603C13.6005 38.9966 14.0976 38.6174 14.6934 38.1524C15.8826 37.2243 17.4755 35.9466 19.0742 34.5582C20.6628 33.1791 22.3051 31.6499 23.5665 30.2222C24.1951 29.5107 24.7732 28.7753 25.2055 28.0585C25.6032 27.3985 26.0417 26.4918 26.0417 25.4999C26.0417 24.508 25.6032 23.6014 25.2055 22.9416C24.7732 22.2245 24.1951 21.4891 23.5665 20.7777C22.3051 19.35 20.6628 17.8208 19.0742 16.4416C17.4753 15.0534 15.8826 13.7756 14.6932 12.8475C14.0976 12.3826 13.6005 12.0034 13.2511 11.7396C13.078 11.6088 12.7949 11.3978 12.6976 11.3252L12.6949 11.3233C12.0622 10.8573 11.2199 10.7862 10.5186 11.1407Z" fill="url(#paint1_linear_8856_7842)"/>
<defs>
<linearGradient id="paint0_linear_8856_7842" x1="20.1145" y1="25.5599" x2="42.9044" y2="26.2009" gradientUnits="userSpaceOnUse">
<stop stop-color="#504999"/>
<stop offset="1" stop-color="#44A199"/>
</linearGradient>
<linearGradient id="paint1_linear_8856_7842" x1="5.53141" y1="25.5602" x2="28.3212" y2="26.2011" gradientUnits="userSpaceOnUse">
<stop stop-color="#504999"/>
<stop offset="1" stop-color="#44A199"/>
</linearGradient>
</defs>
</svg>
