<svg width="50" height="50" viewBox="0 0 50 50" fill="none" xmlns="http://www.w3.org/2000/svg">
<path d="M25.1938 14.1771C25.1056 14.2428 24.844 14.4378 24.6769 14.564C24.3425 14.8165 23.8631 15.1823 23.2869 15.6319C22.1325 16.5328 20.6003 17.7624 19.0742 19.0874C17.5377 20.4214 16.0549 21.8112 14.9726 23.0362C14.4294 23.651 14.031 24.1754 13.7796 24.5923C13.6599 24.7908 13.5987 24.9242 13.568 24.9996C13.5987 25.075 13.6599 25.2081 13.7796 25.4069C14.031 25.8237 14.4294 26.3481 14.9727 26.9629C16.055 28.1877 17.5377 29.5777 19.0742 30.9117C20.6002 32.2369 22.1325 33.4664 23.2869 34.3673C23.8629 34.8169 24.8594 35.5696 25.1938 35.8221C26.1202 36.5046 26.3181 37.8087 25.6356 38.7352C24.9533 39.6614 23.6481 39.8585 22.7217 39.1762L22.7152 39.1714C22.3596 38.9027 21.3154 38.1142 20.7234 37.6521C19.5341 36.7239 17.9413 35.4462 16.3424 34.0579C14.7539 32.6787 13.1117 31.1496 11.8502 29.7219C11.2216 29.0104 10.6435 28.275 10.2113 27.5579C9.81346 26.8981 9.375 25.9915 9.375 24.9996C9.375 24.0075 9.81346 23.1008 10.2112 22.441C10.6435 21.724 11.2216 20.9887 11.8502 20.2773C13.1117 18.8496 14.7539 17.3204 16.3425 15.9412C17.9414 14.553 19.5342 13.2752 20.7235 12.3471C21.3192 11.8822 21.8162 11.503 22.1656 11.2392C22.3387 11.1084 22.6219 10.8974 22.7192 10.8248L22.7219 10.8229C23.6481 10.1406 24.9535 10.3377 25.6358 11.2642C26.3181 12.1906 26.1202 13.4948 25.1938 14.1771Z" fill="url(#paint0_linear_8394_25554)"/>
<path opacity="0.4" d="M39.4802 10.6404C40.1816 10.9949 40.6237 11.7138 40.6237 12.4997V37.4998C40.6237 38.2856 40.1814 39.0046 39.4802 39.359C38.7787 39.7135 37.9377 39.6431 37.3047 39.1771L37.2995 39.1731C37.1995 39.0987 36.9191 38.8896 36.7474 38.76C36.3983 38.4962 35.9012 38.1171 35.3054 37.6521C34.1162 36.724 32.5233 35.4462 30.9245 34.0579C29.336 32.6787 27.6937 31.1496 26.4322 29.7219C25.8037 29.0104 25.2256 28.275 24.7933 27.5581C24.3956 26.8981 23.957 25.9915 23.957 24.9996C23.957 24.0077 24.3956 23.101 24.7933 22.4412C25.2256 21.7242 25.8037 20.9887 26.4322 20.2774C27.6937 18.8497 29.336 17.3205 30.9245 15.9413C32.5235 14.553 34.1162 13.2753 35.3056 12.3472C35.9012 11.8822 36.3983 11.5031 36.7477 11.2392C36.9208 11.1084 37.2039 10.8975 37.3012 10.8249L37.3039 10.823C37.9366 10.357 38.7789 10.2859 39.4802 10.6404Z" fill="#4F4998"/>
<defs>
<linearGradient id="paint0_linear_8394_25554" x1="29.8855" y1="25.0596" x2="7.09555" y2="25.7006" gradientUnits="userSpaceOnUse">
<stop stop-color="#504999"/>
<stop offset="1" stop-color="#44A199"/>
</linearGradient>
</defs>
</svg>
