<svg width="885" height="954" viewBox="0 0 885 954" fill="none" xmlns="http://www.w3.org/2000/svg">
<g filter="url(#filter0_d_8457_12235)">
<path d="M52.1123 205.179L1215.07 -20.8765C1219.79 -21.7955 1223.29 -22.4749 1226.11 -22.787C1228.74 -23.0786 1230.71 -23.0414 1232.46 -22.6004L1232.81 -22.5068C1235.92 -21.613 1238.7 -19.8153 1240.79 -17.3484L1241.2 -16.8459C1242.38 -15.3361 1243.21 -13.4546 1243.97 -10.7378C1244.74 -8.01219 1245.42 -4.51232 1246.34 0.215297L1250.77 23.0285L35.4549 259.262L31.0204 236.449L30.3782 233.124C29.7848 230.014 29.344 227.517 29.11 225.407C28.8183 222.778 28.8556 220.807 29.2966 219.054L29.3902 218.706C30.284 215.589 32.0816 212.812 34.5486 210.723L35.0511 210.314C36.5609 209.134 38.4424 208.306 41.1591 207.543C43.8848 206.779 47.3847 206.098 52.1123 205.179Z" fill="#FAFEFF"/>
<path d="M52.1123 205.179L1215.07 -20.8765C1219.79 -21.7955 1223.29 -22.4749 1226.11 -22.787C1228.74 -23.0786 1230.71 -23.0414 1232.46 -22.6004L1232.81 -22.5068C1235.92 -21.613 1238.7 -19.8153 1240.79 -17.3484L1241.2 -16.8459C1242.38 -15.3361 1243.21 -13.4546 1243.97 -10.7378C1244.74 -8.01219 1245.42 -4.51232 1246.34 0.215297L1250.77 23.0285L35.4549 259.262L31.0204 236.449L30.3782 233.124C29.7848 230.014 29.344 227.517 29.11 225.407C28.8183 222.778 28.8556 220.807 29.2966 219.054L29.3902 218.706C30.284 215.589 32.0816 212.812 34.5486 210.723L35.0511 210.314C36.5609 209.134 38.4424 208.306 41.1591 207.543C43.8848 206.779 47.3847 206.098 52.1123 205.179Z" stroke="white" stroke-width="1.54951"/>
<circle cx="5.14598" cy="5.14598" r="5.14598" transform="matrix(0.981627 -0.190809 -0.190809 -0.981627 47.75 236.691)" fill="#EE6A5F"/>
<circle cx="5.14598" cy="5.14598" r="5.14598" transform="matrix(0.981627 -0.190809 -0.190809 -0.981627 64.5859 233.419)" fill="#F5BF50"/>
<circle cx="5.14598" cy="5.14598" r="5.14598" transform="matrix(0.981627 -0.190809 -0.190809 -0.981627 81.4258 230.146)" fill="#62C554"/>
<path d="M114.114 218.549L115.096 223.6C115.277 224.53 116.177 225.137 117.107 224.957L121.468 224.109M114.114 218.549L113.132 213.497C112.951 212.567 113.559 211.667 114.489 211.486L118.849 210.639M114.114 218.549L120.158 217.374M120.158 217.374L118.849 210.639M120.158 217.374L121.468 224.109M118.849 210.639L127.959 208.868C128.889 208.687 129.789 209.294 129.97 210.224L131.934 220.327C132.115 221.257 131.507 222.158 130.577 222.338L121.468 224.109" stroke="#D4D4D4" stroke-width="1.71533"/>
<path d="M159.401 215.511L153.938 211.826C153.293 211.391 153.121 210.507 153.556 209.862L157.241 204.398" stroke="#D4D4D4" stroke-width="1.71533" stroke-miterlimit="10" stroke-linecap="round" stroke-linejoin="round"/>
<path d="M182.13 211.093L185.815 205.629C186.25 204.984 186.078 204.1 185.433 203.665L179.97 199.98" stroke="#1E1E1E" stroke-width="1.71533" stroke-miterlimit="10" stroke-linecap="round" stroke-linejoin="round"/>
<path d="M437.797 155.119C438.33 157.863 436.837 160.821 434.262 162.102C434.086 162.189 433.884 162.228 433.689 162.214C430.821 161.991 428.328 159.807 427.795 157.063L427.316 154.599C427.227 154.139 427.473 153.549 427.871 153.291L430.749 151.404C431.395 150.981 432.186 150.827 432.944 150.977L436.319 151.649C436.779 151.74 437.234 152.193 437.323 152.654L437.797 155.119Z" fill="url(#paint0_linear_8457_12235)" stroke="#747474" stroke-width="0.857664" stroke-linecap="round" stroke-linejoin="round"/>
<rect x="447.441" y="141.525" width="435.759" height="24.0146" rx="6.86131" transform="rotate(-11 447.441 141.525)" fill="#F2F2F2"/>
<path d="M593.646 123.59L593.428 122.467C593.122 120.896 591.648 119.901 590.076 120.206C588.505 120.512 587.51 121.987 587.815 123.558L588.033 124.681C587.079 124.866 586.491 125.738 586.677 126.692L587.441 130.621C587.626 131.575 588.498 132.163 589.452 131.977L595.064 130.886C596.019 130.701 596.606 129.829 596.421 128.875L595.657 124.946C595.472 123.992 594.6 123.404 593.646 123.59ZM588.938 123.34C588.752 122.386 589.34 121.514 590.294 121.329C591.248 121.143 592.12 121.731 592.305 122.685L592.524 123.808L589.156 124.462L588.938 123.34Z" fill="#9E9E9E"/>
<path d="M604.364 126.954C604.015 127.022 603.685 127.018 603.375 126.942C603.065 126.863 602.801 126.715 602.585 126.496C602.368 126.275 602.225 125.985 602.155 125.626C602.094 125.311 602.106 125.043 602.193 124.822C602.278 124.6 602.414 124.412 602.601 124.259C602.787 124.106 603 123.978 603.241 123.874C603.483 123.767 603.729 123.672 603.978 123.589C604.305 123.481 604.57 123.396 604.774 123.334C604.98 123.269 605.125 123.2 605.21 123.126C605.297 123.052 605.328 122.947 605.301 122.811L605.296 122.782C605.227 122.428 605.077 122.172 604.845 122.013C604.615 121.854 604.306 121.813 603.916 121.889C603.512 121.967 603.212 122.117 603.017 122.339C602.821 122.561 602.697 122.781 602.643 123L601.783 122.869C601.861 122.506 602.002 122.208 602.205 121.975C602.41 121.74 602.647 121.557 602.918 121.427C603.19 121.295 603.465 121.202 603.742 121.148C603.919 121.114 604.127 121.096 604.364 121.094C604.604 121.09 604.845 121.131 605.085 121.218C605.328 121.305 605.546 121.465 605.74 121.698C605.934 121.931 606.074 122.266 606.159 122.704L606.865 126.334L606.018 126.499L605.873 125.753L605.83 125.761C605.796 125.892 605.725 126.038 605.618 126.201C605.51 126.363 605.355 126.514 605.151 126.653C604.947 126.791 604.685 126.892 604.364 126.954ZM604.346 126.169C604.68 126.104 604.95 125.983 605.154 125.807C605.36 125.63 605.502 125.426 605.579 125.196C605.658 124.964 605.675 124.734 605.631 124.504L605.48 123.729C605.452 123.779 605.381 123.834 605.266 123.894C605.153 123.95 605.02 124.007 604.867 124.064C604.717 124.118 604.569 124.169 604.424 124.217C604.282 124.262 604.166 124.3 604.077 124.329C603.863 124.401 603.666 124.488 603.488 124.589C603.311 124.688 603.176 124.812 603.083 124.962C602.993 125.109 602.968 125.29 603.01 125.505C603.067 125.799 603.22 126 603.466 126.109C603.715 126.214 604.008 126.234 604.346 126.169ZM608.812 128.1L607.339 120.523L608.157 120.364L608.327 121.24L608.428 121.22C608.471 121.112 608.534 120.974 608.615 120.804C608.698 120.631 608.832 120.466 609.018 120.309C609.205 120.148 609.478 120.033 609.837 119.963C610.301 119.873 610.732 119.91 611.131 120.073C611.53 120.236 611.87 120.511 612.152 120.898C612.433 121.285 612.63 121.768 612.742 122.347C612.856 122.931 612.855 123.456 612.74 123.923C612.624 124.387 612.413 124.771 612.107 125.073C611.8 125.374 611.418 125.568 610.958 125.658C610.604 125.727 610.31 125.723 610.074 125.647C609.838 125.569 609.648 125.466 609.504 125.337C609.359 125.207 609.246 125.097 609.164 125.009L609.092 125.023L609.659 127.936L608.812 128.1ZM608.707 123.117C608.788 123.533 608.92 123.888 609.104 124.183C609.287 124.475 609.514 124.688 609.783 124.821C610.052 124.953 610.356 124.985 610.696 124.919C611.05 124.851 611.327 124.7 611.527 124.467C611.73 124.232 611.86 123.944 611.918 123.602C611.977 123.258 611.969 122.89 611.893 122.497C611.818 122.11 611.69 121.772 611.51 121.485C611.332 121.194 611.106 120.981 610.831 120.846C610.558 120.708 610.243 120.674 609.884 120.743C609.54 120.81 609.267 120.954 609.067 121.174C608.866 121.392 608.736 121.668 608.677 122.002C608.617 122.334 608.627 122.705 608.707 123.117ZM614.968 126.904L613.496 119.327L614.314 119.168L614.484 120.043L614.584 120.023C614.628 119.916 614.69 119.777 614.771 119.607C614.855 119.435 614.989 119.27 615.174 119.112C615.361 118.951 615.634 118.836 615.993 118.767C616.457 118.676 616.889 118.713 617.288 118.876C617.687 119.039 618.027 119.314 618.308 119.702C618.589 120.089 618.786 120.572 618.899 121.151C619.012 121.734 619.011 122.259 618.896 122.726C618.78 123.19 618.569 123.574 618.263 123.877C617.957 124.177 617.574 124.372 617.115 124.461C616.761 124.53 616.466 124.526 616.23 124.451C615.994 124.372 615.804 124.269 615.66 124.141C615.515 124.01 615.402 123.9 615.321 123.812L615.249 123.826L615.815 126.739L614.968 126.904ZM614.864 121.92C614.944 122.336 615.077 122.692 615.261 122.986C615.444 123.278 615.67 123.491 615.94 123.625C616.208 123.756 616.513 123.789 616.852 123.723C617.206 123.654 617.483 123.503 617.684 123.271C617.886 123.035 618.016 122.747 618.074 122.405C618.134 122.061 618.126 121.693 618.049 121.301C617.974 120.913 617.846 120.576 617.666 120.288C617.488 119.998 617.262 119.785 616.987 119.649C616.715 119.511 616.399 119.477 616.04 119.547C615.696 119.614 615.424 119.757 615.223 119.977C615.022 120.195 614.892 120.471 614.833 120.805C614.773 121.137 614.784 121.509 614.864 121.92ZM621.351 123.578C621.174 123.612 621.01 123.578 620.859 123.476C620.707 123.374 620.615 123.235 620.58 123.058C620.546 122.881 620.58 122.717 620.682 122.565C620.784 122.414 620.923 122.321 621.1 122.286C621.277 122.252 621.442 122.286 621.593 122.388C621.744 122.49 621.837 122.63 621.872 122.807C621.894 122.924 621.885 123.037 621.845 123.147C621.806 123.256 621.744 123.35 621.658 123.429C621.573 123.505 621.471 123.555 621.351 123.578ZM623.904 120.937L623.686 119.892L623.858 119.859L625.792 116.936L626.84 116.733L624.776 119.829L624.704 119.843L623.904 120.937ZM623.505 123.1L622.077 115.752L622.924 115.588L624.352 122.935L623.505 123.1ZM627.007 122.419L624.324 120.111L624.813 119.405L628.083 122.21L627.007 122.419ZM629.001 122.031L627.93 116.521L628.776 116.356L629.848 121.867L629.001 122.031ZM628.182 115.519C628.017 115.551 627.863 115.522 627.722 115.433C627.583 115.343 627.498 115.22 627.467 115.062C627.437 114.904 627.469 114.757 627.564 114.622C627.662 114.487 627.793 114.403 627.959 114.371C628.124 114.339 628.276 114.367 628.415 114.457C628.556 114.546 628.642 114.67 628.673 114.828C628.704 114.985 628.67 115.132 628.572 115.268C628.477 115.403 628.347 115.487 628.182 115.519ZM633.045 121.379C632.696 121.447 632.366 121.443 632.056 121.367C631.745 121.288 631.482 121.14 631.266 120.921C631.049 120.7 630.906 120.41 630.836 120.051C630.775 119.736 630.787 119.468 630.873 119.247C630.959 119.025 631.095 118.837 631.281 118.684C631.468 118.531 631.681 118.403 631.921 118.299C632.164 118.192 632.41 118.097 632.659 118.014C632.985 117.906 633.251 117.821 633.455 117.759C633.66 117.694 633.806 117.625 633.891 117.551C633.978 117.477 634.009 117.372 633.982 117.236L633.976 117.207C633.908 116.853 633.757 116.597 633.525 116.438C633.296 116.279 632.986 116.238 632.597 116.314C632.192 116.392 631.893 116.542 631.697 116.764C631.502 116.986 631.377 117.206 631.323 117.425L630.464 117.294C630.542 116.931 630.683 116.633 630.886 116.4C631.091 116.165 631.328 115.982 631.598 115.852C631.871 115.72 632.145 115.627 632.423 115.573C632.6 115.539 632.807 115.521 633.045 115.519C633.285 115.515 633.525 115.556 633.766 115.643C634.008 115.73 634.227 115.89 634.421 116.123C634.615 116.356 634.755 116.691 634.84 117.129L635.546 120.759L634.699 120.924L634.554 120.178L634.511 120.186C634.477 120.317 634.406 120.463 634.298 120.626C634.191 120.788 634.035 120.939 633.832 121.078C633.628 121.217 633.366 121.317 633.045 121.379ZM633.026 120.594C633.361 120.529 633.631 120.408 633.835 120.232C634.041 120.055 634.183 119.851 634.259 119.621C634.339 119.389 634.356 119.159 634.311 118.929L634.161 118.154C634.133 118.204 634.062 118.259 633.947 118.319C633.834 118.375 633.701 118.432 633.548 118.489C633.397 118.543 633.25 118.594 633.105 118.642C632.962 118.687 632.847 118.725 632.758 118.754C632.544 118.826 632.347 118.913 632.168 119.014C631.991 119.113 631.857 119.237 631.764 119.387C631.674 119.534 631.649 119.715 631.691 119.93C631.748 120.224 631.9 120.425 632.147 120.534C632.396 120.639 632.689 120.659 633.026 120.594ZM637.091 120.459L636.02 114.948L636.838 114.789L637 115.622L637.057 115.61C637.105 115.318 637.243 115.062 637.473 114.841C637.703 114.62 637.984 114.477 638.314 114.413C638.376 114.401 638.454 114.387 638.547 114.371C638.641 114.356 638.712 114.345 638.761 114.341L638.929 115.202C638.899 115.2 638.831 115.202 638.725 115.208C638.621 115.211 638.513 115.223 638.401 115.245C638.133 115.297 637.905 115.4 637.716 115.553C637.529 115.704 637.394 115.889 637.31 116.109C637.228 116.326 637.212 116.558 637.26 116.807L637.938 120.294L637.091 120.459ZM640.268 112.216L641.697 119.564L640.85 119.728L639.422 112.381L640.268 112.216ZM644.194 121.223C644.051 121.251 643.921 121.264 643.804 121.261C643.687 121.262 643.605 121.255 643.558 121.242L643.628 120.454C643.844 120.467 644.03 120.451 644.185 120.406C644.34 120.36 644.466 120.263 644.563 120.112C644.663 119.964 644.738 119.74 644.786 119.44L644.86 118.978L641.746 113.835L642.664 113.657L645.039 117.752L645.096 117.741L645.764 113.054L646.682 112.876L645.571 119.645C645.521 119.95 645.436 120.211 645.317 120.427C645.198 120.647 645.045 120.822 644.857 120.952C644.671 121.083 644.45 121.173 644.194 121.223ZM649.154 118.174C648.977 118.208 648.813 118.174 648.661 118.072C648.51 117.97 648.417 117.83 648.383 117.653C648.348 117.476 648.382 117.312 648.484 117.161C648.586 117.009 648.726 116.917 648.903 116.882C649.08 116.848 649.244 116.882 649.396 116.984C649.547 117.086 649.64 117.225 649.674 117.402C649.697 117.52 649.688 117.633 649.647 117.743C649.609 117.852 649.547 117.946 649.46 118.025C649.376 118.101 649.274 118.15 649.154 118.174ZM653.569 117.375C653.052 117.475 652.584 117.44 652.163 117.269C651.743 117.097 651.39 116.817 651.106 116.428C650.822 116.039 650.627 115.569 650.52 115.019C650.411 114.459 650.418 113.945 650.54 113.477C650.665 113.006 650.889 112.614 651.213 112.3C651.538 111.984 651.95 111.777 652.447 111.681C652.835 111.605 653.198 111.609 653.537 111.692C653.876 111.775 654.169 111.927 654.418 112.146C654.667 112.366 654.849 112.644 654.963 112.979L654.117 113.143C654.003 112.905 653.817 112.71 653.556 112.56C653.298 112.406 652.983 112.366 652.61 112.438C652.279 112.503 652.007 112.645 651.792 112.865C651.578 113.083 651.432 113.361 651.354 113.699C651.278 114.034 651.28 114.41 651.361 114.826C651.444 115.251 651.583 115.609 651.778 115.899C651.976 116.188 652.215 116.396 652.495 116.523C652.778 116.649 653.086 116.68 653.421 116.614C653.641 116.572 653.834 116.495 653.998 116.383C654.163 116.272 654.293 116.132 654.39 115.965C654.486 115.797 654.541 115.607 654.555 115.396L655.401 115.232C655.417 115.566 655.355 115.882 655.217 116.18C655.081 116.474 654.873 116.728 654.594 116.941C654.317 117.151 653.976 117.296 653.569 117.375ZM659.213 116.278C658.715 116.375 658.256 116.341 657.834 116.177C657.415 116.013 657.059 115.739 656.765 115.354C656.475 114.969 656.274 114.491 656.163 113.922C656.052 113.348 656.058 112.827 656.183 112.358C656.31 111.889 656.538 111.5 656.865 111.191C657.194 110.881 657.608 110.678 658.105 110.581C658.603 110.484 659.061 110.518 659.48 110.682C659.902 110.846 660.258 111.122 660.549 111.509C660.843 111.897 661.046 112.377 661.157 112.951C661.268 113.521 661.259 114.038 661.132 114.505C661.006 114.971 660.779 115.359 660.449 115.669C660.122 115.978 659.71 116.181 659.213 116.278ZM659.065 115.517C659.443 115.444 659.735 115.287 659.941 115.046C660.147 114.804 660.278 114.515 660.334 114.176C660.39 113.838 660.382 113.484 660.311 113.116C660.239 112.748 660.114 112.416 659.935 112.12C659.756 111.825 659.525 111.603 659.243 111.454C658.961 111.306 658.631 111.268 658.253 111.341C657.875 111.415 657.583 111.573 657.377 111.817C657.171 112.06 657.041 112.353 656.986 112.694C656.93 113.034 656.938 113.389 657.01 113.757C657.081 114.126 657.207 114.456 657.385 114.749C657.564 115.042 657.794 115.262 658.075 115.408C658.357 115.555 658.687 115.591 659.065 115.517ZM662.98 115.427L661.909 109.916L662.726 109.757L662.894 110.618L662.966 110.604C663.023 110.288 663.164 110.023 663.389 109.811C663.612 109.596 663.904 109.454 664.262 109.384C664.626 109.313 664.945 109.337 665.218 109.455C665.494 109.57 665.728 109.762 665.922 110.029L665.979 110.018C666.065 109.706 666.233 109.439 666.482 109.217C666.732 108.992 667.054 108.841 667.448 108.765C667.941 108.669 668.374 108.745 668.747 108.993C669.12 109.238 669.37 109.684 669.496 110.333L670.212 114.021L669.366 114.185L668.649 110.497C668.57 110.091 668.402 109.822 668.146 109.69C667.889 109.559 667.61 109.523 667.309 109.581C666.922 109.656 666.644 109.832 666.477 110.108C666.309 110.381 666.26 110.696 666.329 111.052L667.027 114.64L666.166 114.807L665.432 111.033C665.371 110.72 665.22 110.487 664.98 110.335C664.739 110.181 664.458 110.135 664.138 110.198C663.918 110.24 663.723 110.339 663.555 110.493C663.389 110.647 663.267 110.84 663.19 111.071C663.115 111.299 663.104 111.548 663.157 111.818L663.826 115.262L662.98 115.427ZM672.863 105.523L672.205 114.78L671.43 114.931L672.088 105.674L672.863 105.523ZM677.465 112.73C677.006 112.819 676.578 112.782 676.181 112.619C675.784 112.453 675.445 112.176 675.163 111.789C674.882 111.399 674.684 110.913 674.571 110.329C674.458 109.75 674.46 109.229 674.575 108.764C674.691 108.3 674.903 107.918 675.212 107.617C675.521 107.316 675.908 107.12 676.372 107.03C676.73 106.96 677.026 106.965 677.257 107.044C677.49 107.121 677.676 107.223 677.816 107.353C677.957 107.479 678.068 107.584 678.149 107.668L678.22 107.654L677.693 104.941L678.54 104.777L679.968 112.124L679.15 112.283L678.986 111.437L678.885 111.456C678.842 111.569 678.779 111.713 678.694 111.888C678.608 112.061 678.471 112.228 678.281 112.389C678.091 112.548 677.819 112.661 677.465 112.73ZM677.432 111.947C677.771 111.881 678.041 111.737 678.241 111.514C678.441 111.289 678.571 111.007 678.631 110.668C678.692 110.326 678.681 109.947 678.6 109.531C678.52 109.12 678.391 108.771 678.211 108.486C678.031 108.198 677.807 107.991 677.539 107.864C677.271 107.735 676.964 107.704 676.62 107.771C676.261 107.841 675.98 107.991 675.777 108.222C675.575 108.45 675.445 108.732 675.387 109.068C675.33 109.402 675.339 109.763 675.414 110.15C675.491 110.542 675.62 110.887 675.802 111.184C675.985 111.479 676.214 111.697 676.488 111.84C676.763 111.98 677.078 112.016 677.432 111.947ZM683.283 111.614C682.934 111.682 682.604 111.678 682.294 111.602C681.983 111.523 681.72 111.374 681.504 111.156C681.287 110.935 681.144 110.645 681.074 110.286C681.013 109.97 681.025 109.702 681.111 109.482C681.197 109.259 681.333 109.072 681.519 108.919C681.706 108.766 681.919 108.638 682.159 108.534C682.402 108.427 682.648 108.332 682.897 108.249C683.224 108.141 683.489 108.056 683.693 107.994C683.899 107.929 684.044 107.86 684.129 107.786C684.216 107.712 684.247 107.607 684.22 107.47L684.215 107.442C684.146 107.088 683.995 106.832 683.764 106.673C683.534 106.514 683.224 106.473 682.835 106.548C682.43 106.627 682.131 106.777 681.936 106.999C681.74 107.22 681.616 107.441 681.561 107.66L680.702 107.529C680.78 107.166 680.921 106.868 681.124 106.635C681.329 106.399 681.566 106.217 681.837 106.087C682.109 105.955 682.383 105.862 682.661 105.808C682.838 105.773 683.045 105.755 683.283 105.754C683.523 105.749 683.763 105.791 684.004 105.878C684.246 105.965 684.465 106.125 684.659 106.358C684.853 106.59 684.993 106.926 685.078 107.363L685.784 110.994L684.937 111.159L684.792 110.412L684.749 110.421C684.715 110.551 684.644 110.698 684.537 110.86C684.429 111.023 684.274 111.173 684.07 111.312C683.866 111.451 683.604 111.552 683.283 111.614ZM683.264 110.828C683.599 110.763 683.869 110.643 684.073 110.467C684.279 110.29 684.421 110.086 684.498 109.855C684.577 109.624 684.594 109.393 684.549 109.164L684.399 108.389C684.371 108.439 684.3 108.494 684.185 108.553C684.072 108.61 683.939 108.667 683.786 108.724C683.635 108.778 683.488 108.829 683.343 108.877C683.2 108.922 683.085 108.96 682.996 108.989C682.782 109.061 682.585 109.147 682.406 109.249C682.23 109.348 682.095 109.472 682.002 109.622C681.912 109.768 681.887 109.949 681.929 110.165C681.986 110.459 682.138 110.66 682.385 110.768C682.634 110.874 682.927 110.894 683.264 110.828ZM690.401 105.658L689.683 106.021C689.61 105.904 689.516 105.795 689.399 105.693C689.284 105.589 689.141 105.512 688.967 105.464C688.794 105.416 688.584 105.416 688.338 105.464C688.001 105.529 687.735 105.662 687.54 105.861C687.348 106.057 687.274 106.274 687.32 106.51C687.361 106.721 687.47 106.872 687.647 106.964C687.824 107.057 688.083 107.112 688.424 107.13L689.281 107.172C689.797 107.196 690.199 107.307 690.489 107.507C690.778 107.704 690.96 107.995 691.035 108.38C691.096 108.696 691.06 108.995 690.926 109.28C690.795 109.563 690.582 109.808 690.287 110.014C689.992 110.221 689.631 110.365 689.203 110.449C688.641 110.558 688.152 110.526 687.736 110.354C687.32 110.182 687.018 109.87 686.829 109.421L687.593 109.064C687.727 109.345 687.915 109.54 688.157 109.647C688.401 109.753 688.697 109.773 689.043 109.705C689.438 109.628 689.735 109.484 689.934 109.271C690.136 109.056 690.214 108.83 690.168 108.593C690.13 108.402 690.032 108.254 689.873 108.151C689.714 108.046 689.489 107.988 689.199 107.977L688.239 107.94C687.711 107.919 687.304 107.806 687.018 107.6C686.735 107.392 686.556 107.098 686.482 106.718C686.422 106.407 686.455 106.115 686.583 105.842C686.714 105.568 686.918 105.334 687.195 105.139C687.475 104.943 687.808 104.807 688.196 104.732C688.741 104.626 689.192 104.662 689.55 104.841C689.91 105.019 690.193 105.292 690.401 105.658ZM692.81 106.188L693.454 109.503L692.608 109.668L691.179 102.32L692.026 102.155L692.55 104.853L692.622 104.839C692.696 104.53 692.846 104.266 693.072 104.048C693.299 103.828 693.63 103.676 694.062 103.591C694.438 103.518 694.782 103.53 695.093 103.626C695.404 103.719 695.667 103.905 695.883 104.183C696.1 104.459 696.255 104.833 696.347 105.307L697.028 108.808L696.181 108.973L695.511 105.529C695.426 105.091 695.247 104.775 694.973 104.58C694.701 104.382 694.366 104.322 693.966 104.399C693.689 104.453 693.452 104.56 693.254 104.72C693.059 104.88 692.92 105.084 692.837 105.334C692.757 105.583 692.748 105.868 692.81 106.188ZM698.691 108.485L697.263 101.137L698.11 100.973L698.637 103.685L698.709 103.671C698.752 103.563 698.815 103.425 698.896 103.255C698.979 103.083 699.113 102.917 699.299 102.76C699.486 102.599 699.759 102.484 700.118 102.414C700.582 102.324 701.013 102.361 701.412 102.524C701.811 102.687 702.151 102.962 702.433 103.349C702.714 103.737 702.911 104.22 703.023 104.798C703.137 105.382 703.136 105.907 703.021 106.374C702.905 106.838 702.694 107.222 702.388 107.524C702.081 107.825 701.699 108.02 701.239 108.109C700.885 108.178 700.591 108.174 700.355 108.098C700.119 108.02 699.929 107.917 699.785 107.788C699.64 107.658 699.527 107.548 699.445 107.46L699.345 107.479L699.509 108.326L698.691 108.485ZM698.988 105.568C699.069 105.984 699.201 106.339 699.385 106.634C699.568 106.926 699.795 107.139 700.064 107.272C700.333 107.404 700.637 107.437 700.977 107.371C701.331 107.302 701.608 107.151 701.808 106.919C702.011 106.683 702.141 106.395 702.199 106.053C702.258 105.709 702.25 105.341 702.174 104.949C702.099 104.561 701.971 104.224 701.791 103.936C701.613 103.645 701.387 103.432 701.112 103.297C700.839 103.159 700.524 103.125 700.165 103.195C699.821 103.262 699.548 103.405 699.348 103.625C699.147 103.843 699.017 104.119 698.958 104.453C698.898 104.785 698.908 105.157 698.988 105.568ZM707.112 106.967C706.615 107.064 706.155 107.03 705.734 106.867C705.315 106.702 704.958 106.428 704.665 106.043C704.374 105.658 704.174 105.18 704.063 104.611C703.951 104.037 703.958 103.516 704.083 103.047C704.21 102.578 704.437 102.189 704.764 101.88C705.094 101.57 705.507 101.367 706.005 101.27C706.502 101.173 706.961 101.207 707.38 101.371C707.801 101.535 708.158 101.811 708.449 102.199C708.743 102.586 708.945 103.066 709.057 103.64C709.168 104.21 709.159 104.728 709.031 105.194C708.906 105.661 708.679 106.048 708.349 106.358C708.022 106.668 707.61 106.871 707.112 106.967ZM706.965 106.207C707.342 106.133 707.635 105.976 707.841 105.735C708.047 105.494 708.178 105.204 708.234 104.865C708.29 104.527 708.282 104.173 708.21 103.805C708.139 103.437 708.013 103.105 707.834 102.81C707.655 102.514 707.425 102.292 707.143 102.144C706.861 101.995 706.531 101.957 706.153 102.031C705.775 102.104 705.483 102.263 705.277 102.506C705.071 102.75 704.941 103.042 704.885 103.383C704.83 103.724 704.838 104.078 704.91 104.447C704.981 104.815 705.106 105.146 705.285 105.439C705.464 105.731 705.694 105.951 705.975 106.097C706.257 106.244 706.587 106.28 706.965 106.207ZM712.526 105.93C712.177 105.998 711.847 105.994 711.537 105.917C711.227 105.839 710.963 105.69 710.747 105.471C710.53 105.251 710.387 104.961 710.317 104.602C710.256 104.286 710.268 104.018 710.354 103.798C710.44 103.575 710.576 103.387 710.763 103.235C710.949 103.082 711.162 102.953 711.403 102.849C711.645 102.743 711.891 102.648 712.14 102.565C712.467 102.456 712.732 102.371 712.936 102.309C713.142 102.245 713.287 102.175 713.372 102.102C713.459 102.028 713.49 101.923 713.463 101.786L713.458 101.757C713.389 101.403 713.239 101.147 713.007 100.989C712.777 100.83 712.468 100.788 712.078 100.864C711.674 100.943 711.374 101.093 711.179 101.314C710.983 101.536 710.859 101.756 710.804 101.975L709.945 101.845C710.023 101.482 710.164 101.184 710.367 100.951C710.572 100.715 710.809 100.532 711.08 100.403C711.352 100.27 711.627 100.177 711.904 100.123C712.081 100.089 712.288 100.071 712.526 100.069C712.766 100.065 713.006 100.106 713.247 100.194C713.49 100.281 713.708 100.44 713.902 100.673C714.096 100.906 714.236 101.241 714.321 101.679L715.027 105.31L714.18 105.474L714.035 104.728L713.992 104.736C713.958 104.867 713.887 105.014 713.78 105.176C713.672 105.338 713.517 105.489 713.313 105.628C713.109 105.767 712.847 105.868 712.526 105.93ZM712.508 105.144C712.842 105.079 713.112 104.958 713.316 104.782C713.522 104.606 713.664 104.402 713.741 104.171C713.82 103.94 713.837 103.709 713.792 103.48L713.642 102.705C713.614 102.755 713.543 102.809 713.428 102.869C713.315 102.926 713.182 102.983 713.029 103.04C712.878 103.094 712.731 103.145 712.586 103.193C712.444 103.238 712.328 103.275 712.239 103.305C712.025 103.376 711.828 103.463 711.65 103.565C711.473 103.664 711.338 103.788 711.245 103.937C711.155 104.084 711.13 104.265 711.172 104.48C711.229 104.775 711.381 104.976 711.628 105.084C711.877 105.19 712.17 105.21 712.508 105.144ZM716.572 105.009L715.501 99.4987L716.319 99.3397L716.481 100.172L716.538 100.161C716.586 99.8687 716.725 99.6121 716.955 99.3911C717.185 99.1702 717.465 99.0276 717.795 98.9635C717.857 98.9514 717.935 98.9375 718.029 98.9217C718.122 98.906 718.194 98.8958 718.242 98.8913L718.41 99.7524C718.38 99.7508 718.312 99.7528 718.206 99.7584C718.103 99.7612 717.994 99.7735 717.882 99.7954C717.614 99.8475 717.386 99.9502 717.197 100.103C717.011 100.254 716.875 100.439 716.791 100.659C716.71 100.876 716.693 101.109 716.741 101.358L717.419 104.845L716.572 105.009ZM722.267 104.022C721.807 104.111 721.38 104.074 720.983 103.91C720.586 103.744 720.246 103.467 719.965 103.08C719.683 102.691 719.486 102.204 719.372 101.62C719.26 101.042 719.262 100.52 719.377 100.056C719.493 99.5915 719.705 99.2089 720.014 98.9081C720.323 98.6073 720.71 98.4118 721.174 98.3216C721.532 98.2518 721.827 98.2565 722.059 98.3357C722.292 98.412 722.478 98.5148 722.618 98.6441C722.759 98.7705 722.87 98.8755 722.951 98.9591L723.022 98.9451L722.495 96.2329L723.342 96.0683L724.77 103.416L723.952 103.575L723.788 102.728L723.687 102.748C723.644 102.86 723.581 103.004 723.496 103.18C723.41 103.353 723.272 103.52 723.083 103.681C722.893 103.839 722.621 103.953 722.267 104.022ZM722.234 103.239C722.573 103.173 722.843 103.028 723.043 102.806C723.243 102.581 723.373 102.299 723.433 101.959C723.493 101.617 723.483 101.238 723.402 100.822C723.322 100.411 723.192 100.063 723.013 99.7773C722.833 99.4896 722.609 99.2824 722.341 99.1558C722.073 99.0267 721.766 98.9957 721.422 99.0626C721.063 99.1324 720.782 99.2826 720.579 99.5132C720.377 99.741 720.247 100.023 720.188 100.36C720.132 100.693 720.141 101.054 720.216 101.442C720.293 101.834 720.422 102.179 720.604 102.476C720.787 102.77 721.016 102.989 721.29 103.132C721.565 103.272 721.88 103.307 722.234 103.239Z" fill="#737373"/>
<path d="M869.936 68.3425C869.374 67.9592 868.732 67.7073 868.059 67.6052C867.386 67.5032 866.698 67.5537 866.047 67.7529C864.028 68.361 862.658 70.363 862.828 72.4676C863.049 75.2498 865.6 77.1363 868.254 76.6202C869.102 76.4555 869.885 76.0536 870.514 75.4613C871.142 74.869 871.589 74.1106 871.804 73.2742C871.91 72.8633 871.557 72.4835 871.141 72.5642C870.934 72.6046 870.759 72.755 870.705 72.9577C870.516 73.7221 870.069 74.3978 869.439 74.8713C868.81 75.3447 868.037 75.587 867.25 75.5574C865.95 75.5245 864.748 74.7039 864.242 73.5092C864.035 73.0381 863.937 72.5266 863.955 72.0124C863.973 71.4983 864.106 70.9948 864.344 70.539C864.583 70.0832 864.921 69.6869 865.333 69.3794C865.746 69.0719 866.222 68.8611 866.727 68.7624C867.659 68.5813 868.565 68.8071 869.29 69.3011L868.607 70.3134C868.322 70.7357 868.687 71.2939 869.186 71.1968L871.201 70.8051C871.51 70.7451 871.714 70.4434 871.654 70.1347L871.262 68.1198C871.165 67.6202 870.509 67.4855 870.225 67.9078L869.936 68.3425Z" fill="#9E9E9E"/>
<path d="M1251.07 24.5491L1413.19 858.613C1414.11 863.34 1414.79 866.841 1415.1 869.654C1415.39 872.283 1415.36 874.254 1414.92 876.007L1414.82 876.355C1413.93 879.472 1412.13 882.248 1409.66 884.338L1409.16 884.747C1407.65 885.927 1405.77 886.755 1403.05 887.517C1400.33 888.282 1396.83 888.963 1392.1 889.882L229.147 1115.94C224.419 1116.86 220.919 1117.54 218.106 1117.85C215.476 1118.14 213.506 1118.1 211.752 1117.66L211.405 1117.57C208.287 1116.67 205.511 1114.88 203.421 1112.41L203.012 1111.91C201.833 1110.4 201.004 1108.52 200.242 1105.8C199.478 1103.07 198.796 1099.57 197.877 1094.85L35.7517 260.782L1251.07 24.5491Z" fill="#FAFEFF"/>
<path d="M1251.07 24.5491L1413.19 858.613C1414.11 863.34 1414.79 866.841 1415.1 869.654C1415.39 872.283 1415.36 874.254 1414.92 876.007L1414.82 876.355C1413.93 879.472 1412.13 882.248 1409.66 884.338L1409.16 884.747C1407.65 885.927 1405.77 886.755 1403.05 887.517C1400.33 888.282 1396.83 888.963 1392.1 889.882L229.147 1115.94C224.419 1116.86 220.919 1117.54 218.106 1117.85C215.476 1118.14 213.506 1118.1 211.752 1117.66L211.405 1117.57C208.287 1116.67 205.511 1114.88 203.421 1112.41L203.012 1111.91C201.833 1110.4 201.004 1108.52 200.242 1105.8C199.478 1103.07 198.796 1099.57 197.877 1094.85L35.7517 260.782L1251.07 24.5491Z" stroke="white" stroke-width="1.54951"/>
<rect x="66.4492" y="422.769" width="1235.04" height="712.252" rx="17.1533" transform="rotate(-11 66.4492 422.769)" fill="#FFF6FA"/>
<g clip-path="url(#clip0_8457_12235)">
<rect x="852.73" y="871.876" width="60.0219" height="25.7226" rx="6.86131" transform="rotate(-11 852.73 871.876)" stroke="#DDDDDD" stroke-width="0.857664"/>
<path d="M955.617 915.793L955.535 915.372L244.966 1053.49L245.048 1053.91L245.13 1054.33L955.699 916.214L955.617 915.793Z" fill="#EBEBEB"/>
</g>
</g>
<defs>
<filter id="filter0_d_8457_12235" x="0.669356" y="-50.3873" width="1441.26" height="1196.18" filterUnits="userSpaceOnUse" color-interpolation-filters="sRGB">
<feFlood flood-opacity="0" result="BackgroundImageFix"/>
<feColorMatrix in="SourceAlpha" type="matrix" values="0 0 0 0 0 0 0 0 0 0 0 0 0 0 0 0 0 0 127 0" result="hardAlpha"/>
<feOffset dx="-0.839796"/>
<feGaussianBlur stdDeviation="11.7571"/>
<feComposite in2="hardAlpha" operator="out"/>
<feColorMatrix type="matrix" values="0 0 0 0 0.721154 0 0 0 0 0.721154 0 0 0 0 0.721154 0 0 0 0.25 0"/>
<feBlend mode="normal" in2="BackgroundImageFix" result="effect1_dropShadow_8457_12235"/>
<feBlend mode="normal" in="SourceGraphic" in2="effect1_dropShadow_8457_12235" result="shape"/>
</filter>
<linearGradient id="paint0_linear_8457_12235" x1="433.208" y1="156.525" x2="432.895" y2="156.586" gradientUnits="userSpaceOnUse">
<stop stop-color="white"/>
<stop offset="1" stop-color="#737373"/>
</linearGradient>
<clipPath id="clip0_8457_12235">
<rect x="208.941" y="976.043" width="765.036" height="120.931" rx="6.86131" transform="rotate(-11 208.941 976.043)" fill="white"/>
</clipPath>
</defs>
</svg>
