<svg width="1920" height="1388" viewBox="0 0 1920 1388" fill="none" xmlns="http://www.w3.org/2000/svg">
<rect x="-1" y="2" width="160.818" height="154" rx="24" fill="#F1F4FF"/>
<rect x="-0.5" y="2.5" width="159.818" height="153" rx="23.5" stroke="#D9D9D9" stroke-opacity="0.2"/>
<path d="M0 156V286C0 299.255 10.7451 310 24 310H136.818C150.073 310 160.818 299.255 160.818 286V263" stroke="#D9D9D9" stroke-opacity="0.2"/>
<rect x="320.637" y="2" width="160.818" height="154" rx="24" fill="#F1F4FF"/>
<rect x="321.137" y="2.5" width="159.818" height="153" rx="23.5" stroke="#D9D9D9" stroke-opacity="0.2"/>
<rect x="481.453" y="2" width="160.818" height="154" rx="24" fill="#F1F4FF"/>
<rect x="481.953" y="2.5" width="159.818" height="153" rx="23.5" stroke="#D9D9D9" stroke-opacity="0.2"/>
<rect x="642.273" y="2" width="160.818" height="154" rx="24" fill="#F1F4FF"/>
<rect x="642.773" y="2.5" width="159.818" height="153" rx="23.5" stroke="#D9D9D9" stroke-opacity="0.2"/>
<rect x="803.09" y="2" width="160.818" height="154" rx="24" fill="#F1F4FF"/>
<rect x="803.59" y="2.5" width="159.818" height="153" rx="23.5" stroke="#D9D9D9" stroke-opacity="0.2"/>
<rect x="963.91" y="2" width="154" height="154" rx="24" fill="#F1F4FF"/>
<rect x="964.41" y="2.5" width="153" height="153" rx="23.5" stroke="#D9D9D9" stroke-opacity="0.2"/>
<rect x="1117.91" y="2" width="160.818" height="154" rx="24" fill="#F1F4FF"/>
<rect x="1118.41" y="2.5" width="159.818" height="153" rx="23.5" stroke="#D9D9D9" stroke-opacity="0.2"/>
<rect x="1278.73" y="2" width="160.818" height="154" rx="24" fill="#F1F4FF"/>
<rect x="1279.23" y="2.5" width="159.818" height="153" rx="23.5" stroke="#D9D9D9" stroke-opacity="0.2"/>
<rect x="1439.55" y="2" width="160.818" height="154" rx="24" fill="#F1F4FF"/>
<rect x="1440.05" y="2.5" width="159.818" height="153" rx="23.5" stroke="#D9D9D9" stroke-opacity="0.2"/>
<rect x="1600.36" y="2" width="160.818" height="154" rx="24" fill="#F1F4FF"/>
<rect x="1600.86" y="2.5" width="159.818" height="153" rx="23.5" stroke="#D9D9D9" stroke-opacity="0.2"/>
<rect x="1761.18" y="2" width="160.818" height="154" rx="24" fill="#F1F4FF"/>
<rect x="1761.68" y="2.5" width="159.818" height="153" rx="23.5" stroke="#D9D9D9" stroke-opacity="0.2"/>
<rect x="160.32" y="156.5" width="159.818" height="153" rx="23.5" stroke="#D9D9D9" stroke-opacity="0.2"/>
<rect x="320.637" y="156" width="160.818" height="154" rx="24" fill="#F1F4FF"/>
<rect x="321.137" y="156.5" width="159.818" height="153" rx="23.5" stroke="#D9D9D9" stroke-opacity="0.2"/>
<rect x="481.453" y="156" width="160.818" height="154" rx="24" fill="#F1F4FF"/>
<rect x="481.953" y="156.5" width="159.818" height="153" rx="23.5" stroke="#D9D9D9" stroke-opacity="0.2"/>
<rect x="642.273" y="156" width="160.818" height="154" rx="24" fill="#F1F4FF"/>
<rect x="642.773" y="156.5" width="159.818" height="153" rx="23.5" stroke="#D9D9D9" stroke-opacity="0.2"/>
<rect x="803.09" y="156" width="160.818" height="154" rx="24" fill="#F1F4FF"/>
<rect x="803.59" y="156.5" width="159.818" height="153" rx="23.5" stroke="#D9D9D9" stroke-opacity="0.2"/>
<rect x="963.91" y="156" width="154" height="154" rx="24" fill="#F1F4FF"/>
<rect x="964.41" y="156.5" width="153" height="153" rx="23.5" stroke="#D9D9D9" stroke-opacity="0.2"/>
<rect x="1117.91" y="156" width="160.818" height="154" rx="24" fill="#F1F4FF"/>
<rect x="1118.41" y="156.5" width="159.818" height="153" rx="23.5" stroke="#D9D9D9" stroke-opacity="0.2"/>
<rect x="1278.73" y="156" width="160.818" height="154" rx="24" fill="#F1F4FF"/>
<rect x="1279.23" y="156.5" width="159.818" height="153" rx="23.5" stroke="#D9D9D9" stroke-opacity="0.2"/>
<rect x="1439.55" y="156" width="160.818" height="154" rx="24" fill="#F1F4FF"/>
<rect x="1440.05" y="156.5" width="159.818" height="153" rx="23.5" stroke="#D9D9D9" stroke-opacity="0.2"/>
<rect x="1600.36" y="156" width="160.818" height="154" rx="24" fill="#F1F4FF"/>
<rect x="1600.86" y="156.5" width="159.818" height="153" rx="23.5" stroke="#D9D9D9" stroke-opacity="0.2"/>
<rect x="1761.18" y="156" width="160.818" height="154" rx="24" fill="#F1F4FF"/>
<rect x="1761.68" y="156.5" width="159.818" height="153" rx="23.5" stroke="#D9D9D9" stroke-opacity="0.2"/>
<rect x="-1" y="310" width="160.818" height="154" rx="24" fill="#F1F4FF"/>
<rect x="-0.5" y="310.5" width="159.818" height="153" rx="23.5" stroke="#D9D9D9" stroke-opacity="0.2"/>
<rect x="159.82" y="310" width="160.818" height="154" rx="24" fill="#F1F4FF"/>
<rect x="160.32" y="310.5" width="159.818" height="153" rx="23.5" stroke="#D9D9D9" stroke-opacity="0.2"/>
<rect x="320.637" y="310" width="160.818" height="154" rx="24" fill="#F1F4FF"/>
<rect x="321.137" y="310.5" width="159.818" height="153" rx="23.5" stroke="#D9D9D9" stroke-opacity="0.2"/>
<rect x="481.453" y="310" width="160.818" height="154" rx="24" fill="#F1F4FF"/>
<rect x="481.953" y="310.5" width="159.818" height="153" rx="23.5" stroke="#D9D9D9" stroke-opacity="0.2"/>
<rect x="642.273" y="310" width="160.818" height="154" rx="24" fill="#F1F4FF"/>
<rect x="642.773" y="310.5" width="159.818" height="153" rx="23.5" stroke="#D9D9D9" stroke-opacity="0.2"/>
<rect x="803.09" y="310" width="160.818" height="154" rx="24" fill="#F1F4FF"/>
<rect x="803.59" y="310.5" width="159.818" height="153" rx="23.5" stroke="#D9D9D9" stroke-opacity="0.2"/>
<rect x="963.91" y="310" width="154" height="154" rx="24" fill="#F1F4FF"/>
<rect x="964.41" y="310.5" width="153" height="153" rx="23.5" stroke="#D9D9D9" stroke-opacity="0.2"/>
<rect x="1117.91" y="310" width="160.818" height="154" rx="24" fill="#F1F4FF"/>
<rect x="1118.41" y="310.5" width="159.818" height="153" rx="23.5" stroke="#D9D9D9" stroke-opacity="0.2"/>
<rect x="1278.73" y="310" width="160.818" height="154" rx="24" fill="#F1F4FF"/>
<rect x="1279.23" y="310.5" width="159.818" height="153" rx="23.5" stroke="#D9D9D9" stroke-opacity="0.2"/>
<rect x="1439.55" y="310" width="160.818" height="154" rx="24" fill="#F1F4FF"/>
<rect x="1440.05" y="310.5" width="159.818" height="153" rx="23.5" stroke="#D9D9D9" stroke-opacity="0.2"/>
<rect x="1600.36" y="310" width="160.818" height="154" rx="24" fill="#F1F4FF"/>
<rect x="1600.86" y="310.5" width="159.818" height="153" rx="23.5" stroke="#D9D9D9" stroke-opacity="0.2"/>
<rect x="1761.18" y="310" width="160.818" height="154" rx="24" fill="#F1F4FF"/>
<rect x="1761.68" y="310.5" width="159.818" height="153" rx="23.5" stroke="#D9D9D9" stroke-opacity="0.2"/>
<rect x="-1" y="464" width="160.818" height="154" rx="24" fill="#F1F4FF"/>
<rect x="-0.5" y="464.5" width="159.818" height="153" rx="23.5" stroke="#D9D9D9" stroke-opacity="0.2"/>
<rect x="159.82" y="464" width="160.818" height="154" rx="24" fill="#F1F4FF"/>
<rect x="160.32" y="464.5" width="159.818" height="153" rx="23.5" stroke="#D9D9D9" stroke-opacity="0.2"/>
<rect x="320.637" y="464" width="160.818" height="154" rx="24" fill="#F1F4FF"/>
<rect x="321.137" y="464.5" width="159.818" height="153" rx="23.5" stroke="#D9D9D9" stroke-opacity="0.2"/>
<rect x="481.453" y="464" width="160.818" height="154" rx="24" fill="#F1F4FF"/>
<rect x="481.953" y="464.5" width="159.818" height="153" rx="23.5" stroke="#D9D9D9" stroke-opacity="0.2"/>
<rect x="642.273" y="464" width="160.818" height="154" rx="24" fill="#F1F4FF"/>
<rect x="642.773" y="464.5" width="159.818" height="153" rx="23.5" stroke="#D9D9D9" stroke-opacity="0.2"/>
<rect x="803.09" y="464" width="160.818" height="154" rx="24" fill="#F1F4FF"/>
<rect x="803.59" y="464.5" width="159.818" height="153" rx="23.5" stroke="#D9D9D9" stroke-opacity="0.2"/>
<rect x="963.91" y="464" width="154" height="154" rx="24" fill="#F1F4FF"/>
<rect x="964.41" y="464.5" width="153" height="153" rx="23.5" stroke="#D9D9D9" stroke-opacity="0.2"/>
<rect x="1117.91" y="464" width="160.818" height="154" rx="24" fill="#F1F4FF"/>
<rect x="1118.41" y="464.5" width="159.818" height="153" rx="23.5" stroke="#D9D9D9" stroke-opacity="0.2"/>
<rect x="1278.73" y="464" width="160.818" height="154" rx="24" fill="#F1F4FF"/>
<rect x="1279.23" y="464.5" width="159.818" height="153" rx="23.5" stroke="#D9D9D9" stroke-opacity="0.2"/>
<rect x="1439.55" y="464" width="160.818" height="154" rx="24" fill="#F1F4FF"/>
<rect x="1440.05" y="464.5" width="159.818" height="153" rx="23.5" stroke="#D9D9D9" stroke-opacity="0.2"/>
<rect x="1600.36" y="464" width="160.818" height="154" rx="24" fill="#F1F4FF"/>
<rect x="1600.86" y="464.5" width="159.818" height="153" rx="23.5" stroke="#D9D9D9" stroke-opacity="0.2"/>
<rect x="1761.18" y="464" width="160.818" height="154" rx="24" fill="#F1F4FF"/>
<rect x="1761.68" y="464.5" width="159.818" height="153" rx="23.5" stroke="#D9D9D9" stroke-opacity="0.2"/>
<rect x="-1" y="618" width="160.818" height="154" rx="24" fill="#F1F4FF"/>
<rect x="-0.5" y="618.5" width="159.818" height="153" rx="23.5" stroke="#D9D9D9" stroke-opacity="0.2"/>
<rect x="159.82" y="618" width="160.818" height="154" rx="24" fill="#F1F4FF"/>
<rect x="160.32" y="618.5" width="159.818" height="153" rx="23.5" stroke="#D9D9D9" stroke-opacity="0.2"/>
<rect x="320.637" y="618" width="160.818" height="154" rx="24" fill="#F1F4FF"/>
<rect x="321.137" y="618.5" width="159.818" height="153" rx="23.5" stroke="#D9D9D9" stroke-opacity="0.2"/>
<rect x="481.453" y="618" width="160.818" height="154" rx="24" fill="#F1F4FF"/>
<rect x="481.953" y="618.5" width="159.818" height="153" rx="23.5" stroke="#D9D9D9" stroke-opacity="0.2"/>
<rect x="642.273" y="618" width="160.818" height="154" rx="24" fill="#F1F4FF"/>
<rect x="642.773" y="618.5" width="159.818" height="153" rx="23.5" stroke="#D9D9D9" stroke-opacity="0.2"/>
<rect x="803.09" y="618" width="160.818" height="154" rx="24" fill="#F1F4FF"/>
<rect x="803.59" y="618.5" width="159.818" height="153" rx="23.5" stroke="#D9D9D9" stroke-opacity="0.2"/>
<rect x="963.91" y="618" width="154" height="154" rx="24" fill="#F1F4FF"/>
<rect x="964.41" y="618.5" width="153" height="153" rx="23.5" stroke="#D9D9D9" stroke-opacity="0.2"/>
<rect x="1117.91" y="618" width="160.818" height="154" rx="24" fill="#F1F4FF"/>
<rect x="1118.41" y="618.5" width="159.818" height="153" rx="23.5" stroke="#D9D9D9" stroke-opacity="0.2"/>
<rect x="1278.73" y="618" width="160.818" height="154" rx="24" fill="#F1F4FF"/>
<rect x="1279.23" y="618.5" width="159.818" height="153" rx="23.5" stroke="#D9D9D9" stroke-opacity="0.2"/>
<rect x="1439.55" y="618" width="160.818" height="154" rx="24" fill="#F1F4FF"/>
<rect x="1440.05" y="618.5" width="159.818" height="153" rx="23.5" stroke="#D9D9D9" stroke-opacity="0.2"/>
<rect x="1600.36" y="618" width="160.818" height="154" rx="24" fill="#F1F4FF"/>
<rect x="1600.86" y="618.5" width="159.818" height="153" rx="23.5" stroke="#D9D9D9" stroke-opacity="0.2"/>
<rect x="1761.18" y="618" width="160.818" height="154" rx="24" fill="#F1F4FF"/>
<rect x="1761.68" y="618.5" width="159.818" height="153" rx="23.5" stroke="#D9D9D9" stroke-opacity="0.2"/>
<rect x="-1" y="772" width="160.818" height="154" rx="24" fill="#F1F4FF"/>
<rect x="-0.5" y="772.5" width="159.818" height="153" rx="23.5" stroke="#D9D9D9" stroke-opacity="0.2"/>
<rect x="159.82" y="772" width="160.818" height="154" rx="24" fill="#F1F4FF"/>
<rect x="160.32" y="772.5" width="159.818" height="153" rx="23.5" stroke="#D9D9D9" stroke-opacity="0.2"/>
<rect x="320.637" y="772" width="160.818" height="154" rx="24" fill="#F1F4FF"/>
<rect x="321.137" y="772.5" width="159.818" height="153" rx="23.5" stroke="#D9D9D9" stroke-opacity="0.2"/>
<rect x="481.453" y="772" width="160.818" height="154" rx="24" fill="#F1F4FF"/>
<rect x="481.953" y="772.5" width="159.818" height="153" rx="23.5" stroke="#D9D9D9" stroke-opacity="0.2"/>
<rect x="642.273" y="772" width="160.818" height="154" rx="24" fill="#F1F4FF"/>
<rect x="642.773" y="772.5" width="159.818" height="153" rx="23.5" stroke="#D9D9D9" stroke-opacity="0.2"/>
<rect x="803.09" y="772" width="160.818" height="154" rx="24" fill="#F1F4FF"/>
<rect x="803.59" y="772.5" width="159.818" height="153" rx="23.5" stroke="#D9D9D9" stroke-opacity="0.2"/>
<rect x="963.91" y="772" width="154" height="154" rx="24" fill="#F1F4FF"/>
<rect x="964.41" y="772.5" width="153" height="153" rx="23.5" stroke="#D9D9D9" stroke-opacity="0.2"/>
<rect x="1117.91" y="772" width="160.818" height="154" rx="24" fill="#F1F4FF"/>
<rect x="1118.41" y="772.5" width="159.818" height="153" rx="23.5" stroke="#D9D9D9" stroke-opacity="0.2"/>
<rect x="1278.73" y="772" width="160.818" height="154" rx="24" fill="#F1F4FF"/>
<rect x="1279.23" y="772.5" width="159.818" height="153" rx="23.5" stroke="#D9D9D9" stroke-opacity="0.2"/>
<rect x="1439.55" y="772" width="160.818" height="154" rx="24" fill="#F1F4FF"/>
<rect x="1440.05" y="772.5" width="159.818" height="153" rx="23.5" stroke="#D9D9D9" stroke-opacity="0.2"/>
<rect x="1600.36" y="772" width="160.818" height="154" rx="24" fill="#F1F4FF"/>
<rect x="1600.86" y="772.5" width="159.818" height="153" rx="23.5" stroke="#D9D9D9" stroke-opacity="0.2"/>
<rect x="1761.18" y="772" width="160.818" height="154" rx="24" fill="#F1F4FF"/>
<rect x="1761.68" y="772.5" width="159.818" height="153" rx="23.5" stroke="#D9D9D9" stroke-opacity="0.2"/>
<rect x="-1" y="926" width="160.818" height="154" rx="24" fill="#F1F4FF"/>
<rect x="-0.5" y="926.5" width="159.818" height="153" rx="23.5" stroke="#D9D9D9" stroke-opacity="0.2"/>
<rect x="159.82" y="926" width="160.818" height="154" rx="24" fill="#F1F4FF"/>
<rect x="160.32" y="926.5" width="159.818" height="153" rx="23.5" stroke="#D9D9D9" stroke-opacity="0.2"/>
<rect x="320.637" y="926" width="160.818" height="154" rx="24" fill="#F1F4FF"/>
<rect x="321.137" y="926.5" width="159.818" height="153" rx="23.5" stroke="#D9D9D9" stroke-opacity="0.2"/>
<rect x="481.453" y="926" width="160.818" height="154" rx="24" fill="#F1F4FF"/>
<rect x="481.953" y="926.5" width="159.818" height="153" rx="23.5" stroke="#D9D9D9" stroke-opacity="0.2"/>
<rect x="642.273" y="926" width="160.818" height="154" rx="24" fill="#F1F4FF"/>
<rect x="642.773" y="926.5" width="159.818" height="153" rx="23.5" stroke="#D9D9D9" stroke-opacity="0.2"/>
<rect x="803.09" y="926" width="160.818" height="154" rx="24" fill="#F1F4FF"/>
<rect x="803.59" y="926.5" width="159.818" height="153" rx="23.5" stroke="#D9D9D9" stroke-opacity="0.2"/>
<rect x="963.91" y="926" width="154" height="154" rx="24" fill="#F1F4FF"/>
<rect x="964.41" y="926.5" width="153" height="153" rx="23.5" stroke="#D9D9D9" stroke-opacity="0.2"/>
<rect x="1117.91" y="926" width="160.818" height="154" rx="24" fill="#F1F4FF"/>
<rect x="1118.41" y="926.5" width="159.818" height="153" rx="23.5" stroke="#D9D9D9" stroke-opacity="0.2"/>
<rect x="1278.73" y="926" width="160.818" height="154" rx="24" fill="#F1F4FF"/>
<rect x="1279.23" y="926.5" width="159.818" height="153" rx="23.5" stroke="#D9D9D9" stroke-opacity="0.2"/>
<rect x="1439.55" y="926" width="160.818" height="154" rx="24" fill="#F1F4FF"/>
<rect x="1440.05" y="926.5" width="159.818" height="153" rx="23.5" stroke="#D9D9D9" stroke-opacity="0.2"/>
<rect x="1600.36" y="926" width="160.818" height="154" rx="24" fill="#F1F4FF"/>
<rect x="1600.86" y="926.5" width="159.818" height="153" rx="23.5" stroke="#D9D9D9" stroke-opacity="0.2"/>
<rect x="1761.18" y="926" width="160.818" height="154" rx="24" fill="#F1F4FF"/>
<rect x="1761.68" y="926.5" width="159.818" height="153" rx="23.5" stroke="#D9D9D9" stroke-opacity="0.2"/>
<rect x="-1" y="1080" width="160.818" height="154" rx="24" fill="#F1F4FF"/>
<rect x="-0.5" y="1080.5" width="159.818" height="153" rx="23.5" stroke="#D9D9D9" stroke-opacity="0.2"/>
<rect x="159.82" y="1080" width="160.818" height="154" rx="24" fill="#F1F4FF"/>
<rect x="160.32" y="1080.5" width="159.818" height="153" rx="23.5" stroke="#D9D9D9" stroke-opacity="0.2"/>
<rect x="320.637" y="1080" width="160.818" height="154" rx="24" fill="#F1F4FF"/>
<rect x="321.137" y="1080.5" width="159.818" height="153" rx="23.5" stroke="#D9D9D9" stroke-opacity="0.2"/>
<rect x="481.453" y="1080" width="160.818" height="154" rx="24" fill="#F1F4FF"/>
<rect x="481.953" y="1080.5" width="159.818" height="153" rx="23.5" stroke="#D9D9D9" stroke-opacity="0.2"/>
<rect x="642.273" y="1080" width="160.818" height="154" rx="24" fill="#F1F4FF"/>
<rect x="642.773" y="1080.5" width="159.818" height="153" rx="23.5" stroke="#D9D9D9" stroke-opacity="0.2"/>
<rect x="803.09" y="1080" width="160.818" height="154" rx="24" fill="#F1F4FF"/>
<rect x="803.59" y="1080.5" width="159.818" height="153" rx="23.5" stroke="#D9D9D9" stroke-opacity="0.2"/>
<rect x="963.91" y="1080" width="154" height="154" rx="24" fill="#F1F4FF"/>
<rect x="964.41" y="1080.5" width="153" height="153" rx="23.5" stroke="#D9D9D9" stroke-opacity="0.2"/>
<rect x="1117.91" y="1080" width="160.818" height="154" rx="24" fill="#F1F4FF"/>
<rect x="1118.41" y="1080.5" width="159.818" height="153" rx="23.5" stroke="#D9D9D9" stroke-opacity="0.2"/>
<rect x="1278.73" y="1080" width="160.818" height="154" rx="24" fill="#F1F4FF"/>
<rect x="1279.23" y="1080.5" width="159.818" height="153" rx="23.5" stroke="#D9D9D9" stroke-opacity="0.2"/>
<rect x="1439.55" y="1080" width="160.818" height="154" rx="24" fill="#F1F4FF"/>
<rect x="1440.05" y="1080.5" width="159.818" height="153" rx="23.5" stroke="#D9D9D9" stroke-opacity="0.2"/>
<rect x="1600.36" y="1080" width="160.818" height="154" rx="24" fill="#F1F4FF"/>
<rect x="1600.86" y="1080.5" width="159.818" height="153" rx="23.5" stroke="#D9D9D9" stroke-opacity="0.2"/>
<rect x="1761.18" y="1080" width="160.818" height="154" rx="24" fill="#F1F4FF"/>
<rect x="1761.68" y="1080.5" width="159.818" height="153" rx="23.5" stroke="#D9D9D9" stroke-opacity="0.2"/>
<rect x="-1" y="1234" width="160.818" height="154" rx="24" fill="#F1F4FF"/>
<rect x="-0.5" y="1234.5" width="159.818" height="153" rx="23.5" stroke="#D9D9D9" stroke-opacity="0.2"/>
<rect x="159.82" y="1234" width="160.818" height="154" rx="24" fill="#F1F4FF"/>
<rect x="160.32" y="1234.5" width="159.818" height="153" rx="23.5" stroke="#D9D9D9" stroke-opacity="0.2"/>
<rect x="320.637" y="1234" width="160.818" height="154" rx="24" fill="#F1F4FF"/>
<rect x="321.137" y="1234.5" width="159.818" height="153" rx="23.5" stroke="#D9D9D9" stroke-opacity="0.2"/>
<rect x="481.453" y="1234" width="160.818" height="154" rx="24" fill="#F1F4FF"/>
<rect x="481.953" y="1234.5" width="159.818" height="153" rx="23.5" stroke="#D9D9D9" stroke-opacity="0.2"/>
<rect x="642.273" y="1234" width="160.818" height="154" rx="24" fill="#F1F4FF"/>
<rect x="642.773" y="1234.5" width="159.818" height="153" rx="23.5" stroke="#D9D9D9" stroke-opacity="0.2"/>
<rect x="803.09" y="1234" width="160.818" height="154" rx="24" fill="#F1F4FF"/>
<rect x="803.59" y="1234.5" width="159.818" height="153" rx="23.5" stroke="#D9D9D9" stroke-opacity="0.2"/>
<rect x="963.91" y="1234" width="154" height="154" rx="24" fill="#F1F4FF"/>
<rect x="964.41" y="1234.5" width="153" height="153" rx="23.5" stroke="#D9D9D9" stroke-opacity="0.2"/>
<rect x="1117.91" y="1234" width="160.818" height="154" rx="24" fill="#F1F4FF"/>
<rect x="1118.41" y="1234.5" width="159.818" height="153" rx="23.5" stroke="#D9D9D9" stroke-opacity="0.2"/>
<rect x="1278.73" y="1234" width="160.818" height="154" rx="24" fill="#F1F4FF"/>
<rect x="1279.23" y="1234.5" width="159.818" height="153" rx="23.5" stroke="#D9D9D9" stroke-opacity="0.2"/>
<rect x="1439.55" y="1234" width="160.818" height="154" rx="24" fill="#F1F4FF"/>
<rect x="1440.05" y="1234.5" width="159.818" height="153" rx="23.5" stroke="#D9D9D9" stroke-opacity="0.2"/>
<rect x="1600.36" y="1234" width="160.818" height="154" rx="24" fill="#F1F4FF"/>
<rect x="1600.86" y="1234.5" width="159.818" height="153" rx="23.5" stroke="#D9D9D9" stroke-opacity="0.2"/>
<rect x="1761.18" y="1234" width="160.818" height="154" rx="24" fill="#F1F4FF"/>
<rect x="1761.68" y="1234.5" width="159.818" height="153" rx="23.5" stroke="#D9D9D9" stroke-opacity="0.2"/>
<path d="M296.209 0.000492844C310.131 -0.0859803 321.442 11.2179 321.364 25.1401L321 90.356V131.352C321 145.159 309.807 156.352 296 156.352H183.5C170.797 156.352 160.5 166.65 160.5 179.352V285.352C160.5 299.159 149.307 310.352 135.5 310.352H26.5V310.348H24C10.193 310.348 -0.999736 299.155 -1 285.348V186H-0.989258L-0.991211 179.853C-0.995927 166.046 10.1939 154.849 24.001 154.844L133.799 154.807V154.85H135.5C148.202 154.85 158.5 144.552 158.5 131.85V25.3501C158.5 11.543 169.693 0.350102 183.5 0.350102H239.994L296.209 0.000492844ZM240 2.3501H183.5C170.797 2.3501 160.5 12.6476 160.5 25.3501V131.85C160.5 145.657 149.307 156.85 135.5 156.85H28.5C28.4617 156.85 28.4239 156.846 28.3867 156.842L24.001 156.844C11.2986 156.849 1.00445 167.15 1.00879 179.852L1.04492 285.32C1.04953 298.022 11.3505 308.316 24.0527 308.312L112.13 308.282V308.348H135.318C148.021 308.348 158.318 298.05 158.318 285.348V180.348H158.5V179.352C158.5 165.545 169.693 154.352 183.5 154.352H296C308.702 154.352 319 144.054 319 131.352V90.3521H320.333L319 90.3442L319.364 25.1294C319.436 12.321 309.03 1.92094 296.222 2.00049L240.006 2.3501L240 1.2837V2.3501Z" fill="black"/>
<path d="M296.209 0.000492844C310.131 -0.0859803 321.442 11.2179 321.364 25.1401L321 90.356V131.352C321 145.159 309.807 156.352 296 156.352H183.5C170.797 156.352 160.5 166.65 160.5 179.352V285.352C160.5 299.159 149.307 310.352 135.5 310.352H26.5V310.348H24C10.193 310.348 -0.999736 299.155 -1 285.348V186H-0.989258L-0.991211 179.853C-0.995927 166.046 10.1939 154.849 24.001 154.844L133.799 154.807V154.85H135.5C148.202 154.85 158.5 144.552 158.5 131.85V25.3501C158.5 11.543 169.693 0.350102 183.5 0.350102H239.994L296.209 0.000492844ZM240 2.3501H183.5C170.797 2.3501 160.5 12.6476 160.5 25.3501V131.85C160.5 145.657 149.307 156.85 135.5 156.85H28.5C28.4617 156.85 28.4239 156.846 28.3867 156.842L24.001 156.844C11.2986 156.849 1.00445 167.15 1.00879 179.852L1.04492 285.32C1.04953 298.022 11.3505 308.316 24.0527 308.312L112.13 308.282V308.348H135.318C148.021 308.348 158.318 298.05 158.318 285.348V180.348H158.5V179.352C158.5 165.545 169.693 154.352 183.5 154.352H296C308.702 154.352 319 144.054 319 131.352V90.3521H320.333L319 90.3442L319.364 25.1294C319.436 12.321 309.03 1.92094 296.222 2.00049L240.006 2.3501L240 1.2837V2.3501Z" fill="url(#paint0_linear_8526_13745)"/>
<path d="M1919.32 1210.89C1919.06 1224.51 1907.9 1235.47 1894.19 1235.4L1826.38 1235.05H1783.5C1769.69 1235.05 1758.5 1223.86 1758.5 1210.05V1104.02C1758.5 1091.32 1748.2 1081.02 1735.5 1081.02H1625.03C1611.22 1081.02 1600.03 1069.83 1600.03 1056.02V952.391H1600.03V950.961C1600.03 937.154 1611.23 925.961 1625.03 925.961L1727.96 925.961V925.971L1734.98 925.969C1748.79 925.964 1759.99 937.154 1759.99 950.961L1760.03 1055.36H1759.98V1056.03C1759.98 1068.73 1770.28 1079.03 1782.98 1079.03H1893.97C1907.77 1079.03 1918.97 1090.22 1918.97 1104.03V1157.27L1919.32 1210.24L1919.32 1210.89ZM1916.97 1157.28V1104.03C1916.97 1091.32 1906.67 1081.03 1893.97 1081.03H1782.98C1769.18 1081.03 1757.98 1069.83 1757.98 1056.03V954.311C1757.98 954.271 1757.99 954.233 1757.99 954.194L1757.99 950.961C1757.99 938.259 1747.68 927.965 1734.98 927.969L1625.06 928.004C1612.36 928.008 1602.06 938.308 1602.07 951.011L1602.1 1034.57H1602.03V1055.85C1602.03 1068.55 1612.33 1078.85 1625.03 1078.85H1733.78V1079.02H1735.5C1749.3 1079.02 1760.5 1090.22 1760.5 1104.02V1210.05C1760.5 1222.75 1770.79 1233.05 1783.5 1233.05H1826.38V1234.25L1826.38 1234.05L1826.39 1233.05L1894.2 1233.4C1907.01 1233.47 1917.41 1223.06 1917.32 1210.25L1916.97 1157.28L1918.02 1157.28H1916.97Z" fill="black"/>
<path d="M1919.32 1210.89C1919.06 1224.51 1907.9 1235.47 1894.19 1235.4L1826.38 1235.05H1783.5C1769.69 1235.05 1758.5 1223.86 1758.5 1210.05V1104.02C1758.5 1091.32 1748.2 1081.02 1735.5 1081.02H1625.03C1611.22 1081.02 1600.03 1069.83 1600.03 1056.02V952.391H1600.03V950.961C1600.03 937.154 1611.23 925.961 1625.03 925.961L1727.96 925.961V925.971L1734.98 925.969C1748.79 925.964 1759.99 937.154 1759.99 950.961L1760.03 1055.36H1759.98V1056.03C1759.98 1068.73 1770.28 1079.03 1782.98 1079.03H1893.97C1907.77 1079.03 1918.97 1090.22 1918.97 1104.03V1157.27L1919.32 1210.24L1919.32 1210.89ZM1916.97 1157.28V1104.03C1916.97 1091.32 1906.67 1081.03 1893.97 1081.03H1782.98C1769.18 1081.03 1757.98 1069.83 1757.98 1056.03V954.311C1757.98 954.271 1757.99 954.233 1757.99 954.194L1757.99 950.961C1757.99 938.259 1747.68 927.965 1734.98 927.969L1625.06 928.004C1612.36 928.008 1602.06 938.308 1602.07 951.011L1602.1 1034.57H1602.03V1055.85C1602.03 1068.55 1612.33 1078.85 1625.03 1078.85H1733.78V1079.02H1735.5C1749.3 1079.02 1760.5 1090.22 1760.5 1104.02V1210.05C1760.5 1222.75 1770.79 1233.05 1783.5 1233.05H1826.38V1234.25L1826.38 1234.05L1826.39 1233.05L1894.2 1233.4C1907.01 1233.47 1917.41 1223.06 1917.32 1210.25L1916.97 1157.28L1918.02 1157.28H1916.97Z" fill="url(#paint1_linear_8526_13745)"/>
<defs>
<linearGradient id="paint0_linear_8526_13745" x1="-1" y1="155.176" x2="321.365" y2="155.176" gradientUnits="userSpaceOnUse">
<stop stop-color="#285DF2"/>
<stop offset="0.5" stop-color="#8AAEFE"/>
<stop offset="1" stop-color="#A9BEFA"/>
</linearGradient>
<linearGradient id="paint1_linear_8526_13745" x1="1759.67" y1="925.961" x2="1759.67" y2="1235.4" gradientUnits="userSpaceOnUse">
<stop stop-color="#285DF2"/>
<stop offset="0.5" stop-color="#E1D4FF"/>
<stop offset="1" stop-color="#A9BEFA"/>
</linearGradient>
</defs>
</svg>
