<svg width="320" height="332" viewBox="0 0 320 332" fill="none" xmlns="http://www.w3.org/2000/svg">
<rect x="16.5" y="104.5" width="284" height="178" rx="36.5" fill="url(#paint0_linear_8865_6572)" stroke="url(#paint1_linear_8865_6572)"/>
<rect x="26" y="213" width="265" height="60" rx="30" fill="white"/>
<g clip-path="url(#clip0_8865_6572)">
<path d="M101.019 238.27V244.472C101.019 245.209 101.21 245.765 101.593 246.138C101.985 246.511 102.526 246.698 103.217 246.698C103.917 246.698 104.458 246.511 104.841 246.138C105.233 245.765 105.429 245.209 105.429 244.472V238.27H107.025V244.444C107.025 245.237 106.852 245.909 106.507 246.46C106.161 247.011 105.699 247.421 105.121 247.692C104.542 247.963 103.903 248.098 103.203 248.098C102.503 248.098 101.863 247.963 101.285 247.692C100.715 247.421 100.263 247.011 99.9267 246.46C99.5907 245.909 99.4227 245.237 99.4227 244.444V238.27H101.019ZM110.699 241.42C110.969 241.065 111.338 240.767 111.805 240.524C112.271 240.281 112.799 240.16 113.387 240.16C114.059 240.16 114.67 240.328 115.221 240.664C115.781 240.991 116.219 241.453 116.537 242.05C116.854 242.647 117.013 243.333 117.013 244.108C117.013 244.883 116.854 245.578 116.537 246.194C116.219 246.801 115.781 247.277 115.221 247.622C114.67 247.958 114.059 248.126 113.387 248.126C112.799 248.126 112.276 248.009 111.819 247.776C111.361 247.533 110.988 247.235 110.699 246.88V251.668H109.103V240.286H110.699V241.42ZM115.389 244.108C115.389 243.576 115.277 243.119 115.053 242.736C114.838 242.344 114.549 242.05 114.185 241.854C113.83 241.649 113.447 241.546 113.037 241.546C112.635 241.546 112.253 241.649 111.889 241.854C111.534 242.059 111.245 242.358 111.021 242.75C110.806 243.142 110.699 243.604 110.699 244.136C110.699 244.668 110.806 245.135 111.021 245.536C111.245 245.928 111.534 246.227 111.889 246.432C112.253 246.637 112.635 246.74 113.037 246.74C113.447 246.74 113.83 246.637 114.185 246.432C114.549 246.217 114.838 245.909 115.053 245.508C115.277 245.107 115.389 244.64 115.389 244.108ZM121.699 240.16C122.296 240.16 122.824 240.281 123.281 240.524C123.748 240.757 124.112 241.051 124.373 241.406V240.286H125.983V248.126C125.983 248.835 125.834 249.465 125.535 250.016C125.236 250.576 124.802 251.015 124.233 251.332C123.673 251.649 123.001 251.808 122.217 251.808C121.172 251.808 120.304 251.561 119.613 251.066C118.922 250.581 118.53 249.918 118.437 249.078H120.019C120.14 249.479 120.397 249.801 120.789 250.044C121.19 250.296 121.666 250.422 122.217 250.422C122.861 250.422 123.379 250.226 123.771 249.834C124.172 249.442 124.373 248.873 124.373 248.126V246.838C124.102 247.202 123.734 247.51 123.267 247.762C122.81 248.005 122.287 248.126 121.699 248.126C121.027 248.126 120.411 247.958 119.851 247.622C119.3 247.277 118.862 246.801 118.535 246.194C118.218 245.578 118.059 244.883 118.059 244.108C118.059 243.333 118.218 242.647 118.535 242.05C118.862 241.453 119.3 240.991 119.851 240.664C120.411 240.328 121.027 240.16 121.699 240.16ZM124.373 244.136C124.373 243.604 124.261 243.142 124.037 242.75C123.822 242.358 123.538 242.059 123.183 241.854C122.828 241.649 122.446 241.546 122.035 241.546C121.624 241.546 121.242 241.649 120.887 241.854C120.532 242.05 120.243 242.344 120.019 242.736C119.804 243.119 119.697 243.576 119.697 244.108C119.697 244.64 119.804 245.107 120.019 245.508C120.243 245.909 120.532 246.217 120.887 246.432C121.251 246.637 121.634 246.74 122.035 246.74C122.446 246.74 122.828 246.637 123.183 246.432C123.538 246.227 123.822 245.928 124.037 245.536C124.261 245.135 124.373 244.668 124.373 244.136ZM129.675 241.406C129.909 241.014 130.217 240.711 130.599 240.496C130.991 240.272 131.453 240.16 131.985 240.16V241.812H131.579C130.954 241.812 130.478 241.971 130.151 242.288C129.834 242.605 129.675 243.156 129.675 243.94V248H128.079V240.286H129.675V241.406ZM132.92 244.108C132.92 243.333 133.079 242.647 133.396 242.05C133.723 241.453 134.162 240.991 134.712 240.664C135.272 240.328 135.888 240.16 136.56 240.16C137.167 240.16 137.694 240.281 138.142 240.524C138.6 240.757 138.964 241.051 139.234 241.406V240.286H140.844V248H139.234V246.852C138.964 247.216 138.595 247.519 138.128 247.762C137.662 248.005 137.13 248.126 136.532 248.126C135.87 248.126 135.263 247.958 134.712 247.622C134.162 247.277 133.723 246.801 133.396 246.194C133.079 245.578 132.92 244.883 132.92 244.108ZM139.234 244.136C139.234 243.604 139.122 243.142 138.898 242.75C138.684 242.358 138.399 242.059 138.044 241.854C137.69 241.649 137.307 241.546 136.896 241.546C136.486 241.546 136.103 241.649 135.748 241.854C135.394 242.05 135.104 242.344 134.88 242.736C134.666 243.119 134.558 243.576 134.558 244.108C134.558 244.64 134.666 245.107 134.88 245.508C135.104 245.909 135.394 246.217 135.748 246.432C136.112 246.637 136.495 246.74 136.896 246.74C137.307 246.74 137.69 246.637 138.044 246.432C138.399 246.227 138.684 245.928 138.898 245.536C139.122 245.135 139.234 244.668 139.234 244.136ZM142.409 244.108C142.409 243.333 142.567 242.647 142.885 242.05C143.211 241.453 143.65 240.991 144.201 240.664C144.761 240.328 145.381 240.16 146.063 240.16C146.567 240.16 147.061 240.272 147.547 240.496C148.041 240.711 148.433 241 148.723 241.364V237.64H150.333V248H148.723V246.838C148.461 247.211 148.097 247.519 147.631 247.762C147.173 248.005 146.646 248.126 146.049 248.126C145.377 248.126 144.761 247.958 144.201 247.622C143.65 247.277 143.211 246.801 142.885 246.194C142.567 245.578 142.409 244.883 142.409 244.108ZM148.723 244.136C148.723 243.604 148.611 243.142 148.387 242.75C148.172 242.358 147.887 242.059 147.533 241.854C147.178 241.649 146.795 241.546 146.385 241.546C145.974 241.546 145.591 241.649 145.237 241.854C144.882 242.05 144.593 242.344 144.369 242.736C144.154 243.119 144.047 243.576 144.047 244.108C144.047 244.64 144.154 245.107 144.369 245.508C144.593 245.909 144.882 246.217 145.237 246.432C145.601 246.637 145.983 246.74 146.385 246.74C146.795 246.74 147.178 246.637 147.533 246.432C147.887 246.227 148.172 245.928 148.387 245.536C148.611 245.135 148.723 244.668 148.723 244.136ZM159.499 243.954C159.499 244.243 159.48 244.505 159.443 244.738H153.549C153.596 245.354 153.824 245.849 154.235 246.222C154.646 246.595 155.15 246.782 155.747 246.782C156.606 246.782 157.212 246.423 157.567 245.704H159.289C159.056 246.413 158.631 246.997 158.015 247.454C157.408 247.902 156.652 248.126 155.747 248.126C155.01 248.126 154.347 247.963 153.759 247.636C153.18 247.3 152.723 246.833 152.387 246.236C152.06 245.629 151.897 244.929 151.897 244.136C151.897 243.343 152.056 242.647 152.373 242.05C152.7 241.443 153.152 240.977 153.731 240.65C154.319 240.323 154.991 240.16 155.747 240.16C156.475 240.16 157.124 240.319 157.693 240.636C158.262 240.953 158.706 241.401 159.023 241.98C159.34 242.549 159.499 243.207 159.499 243.954ZM157.833 243.45C157.824 242.862 157.614 242.391 157.203 242.036C156.792 241.681 156.284 241.504 155.677 241.504C155.126 241.504 154.655 241.681 154.263 242.036C153.871 242.381 153.638 242.853 153.563 243.45H157.833ZM160.538 244.108C160.538 243.333 160.696 242.647 161.014 242.05C161.34 241.453 161.779 240.991 162.33 240.664C162.89 240.328 163.51 240.16 164.192 240.16C164.696 240.16 165.19 240.272 165.676 240.496C166.17 240.711 166.562 241 166.852 241.364V237.64H168.462V248H166.852V246.838C166.59 247.211 166.226 247.519 165.76 247.762C165.302 248.005 164.775 248.126 164.178 248.126C163.506 248.126 162.89 247.958 162.33 247.622C161.779 247.277 161.34 246.801 161.014 246.194C160.696 245.578 160.538 244.883 160.538 244.108ZM166.852 244.136C166.852 243.604 166.74 243.142 166.516 242.75C166.301 242.358 166.016 242.059 165.662 241.854C165.307 241.649 164.924 241.546 164.514 241.546C164.103 241.546 163.72 241.649 163.366 241.854C163.011 242.05 162.722 242.344 162.498 242.736C162.283 243.119 162.176 243.576 162.176 244.108C162.176 244.64 162.283 245.107 162.498 245.508C162.722 245.909 163.011 246.217 163.366 246.432C163.73 246.637 164.112 246.74 164.514 246.74C164.924 246.74 165.307 246.637 165.662 246.432C166.016 246.227 166.301 245.928 166.516 245.536C166.74 245.135 166.852 244.668 166.852 244.136ZM176.057 241.588V245.858C176.057 246.147 176.122 246.357 176.253 246.488C176.393 246.609 176.626 246.67 176.953 246.67H177.933V248H176.673C175.954 248 175.403 247.832 175.021 247.496C174.638 247.16 174.447 246.614 174.447 245.858V241.588H173.537V240.286H174.447V238.368H176.057V240.286H177.933V241.588H176.057ZM182.75 248.126C182.022 248.126 181.364 247.963 180.776 247.636C180.188 247.3 179.726 246.833 179.39 246.236C179.054 245.629 178.886 244.929 178.886 244.136C178.886 243.352 179.058 242.657 179.404 242.05C179.749 241.443 180.22 240.977 180.818 240.65C181.415 240.323 182.082 240.16 182.82 240.16C183.557 240.16 184.224 240.323 184.822 240.65C185.419 240.977 185.89 241.443 186.236 242.05C186.581 242.657 186.754 243.352 186.754 244.136C186.754 244.92 186.576 245.615 186.222 246.222C185.867 246.829 185.382 247.3 184.766 247.636C184.159 247.963 183.487 248.126 182.75 248.126ZM182.75 246.74C183.16 246.74 183.543 246.642 183.898 246.446C184.262 246.25 184.556 245.956 184.78 245.564C185.004 245.172 185.116 244.696 185.116 244.136C185.116 243.576 185.008 243.105 184.794 242.722C184.579 242.33 184.294 242.036 183.94 241.84C183.585 241.644 183.202 241.546 182.792 241.546C182.381 241.546 181.998 241.644 181.644 241.84C181.298 242.036 181.023 242.33 180.818 242.722C180.612 243.105 180.51 243.576 180.51 244.136C180.51 244.967 180.72 245.611 181.14 246.068C181.569 246.516 182.106 246.74 182.75 246.74ZM198.772 241.168C198.772 241.663 198.655 242.129 198.422 242.568C198.189 243.007 197.815 243.366 197.302 243.646C196.789 243.917 196.131 244.052 195.328 244.052H193.564V248H191.968V238.27H195.328C196.075 238.27 196.705 238.401 197.218 238.662C197.741 238.914 198.128 239.259 198.38 239.698C198.641 240.137 198.772 240.627 198.772 241.168ZM195.328 242.75C195.935 242.75 196.387 242.615 196.686 242.344C196.985 242.064 197.134 241.672 197.134 241.168C197.134 240.104 196.532 239.572 195.328 239.572H193.564V242.75H195.328ZM201.89 241.406C202.123 241.014 202.431 240.711 202.814 240.496C203.206 240.272 203.668 240.16 204.2 240.16V241.812H203.794C203.169 241.812 202.693 241.971 202.366 242.288C202.049 242.605 201.89 243.156 201.89 243.94V248H200.294V240.286H201.89V241.406ZM209.013 248.126C208.285 248.126 207.627 247.963 207.039 247.636C206.451 247.3 205.989 246.833 205.653 246.236C205.317 245.629 205.149 244.929 205.149 244.136C205.149 243.352 205.322 242.657 205.667 242.05C206.013 241.443 206.484 240.977 207.081 240.65C207.679 240.323 208.346 240.16 209.083 240.16C209.821 240.16 210.488 240.323 211.085 240.65C211.683 240.977 212.154 241.443 212.499 242.05C212.845 242.657 213.017 243.352 213.017 244.136C213.017 244.92 212.84 245.615 212.485 246.222C212.131 246.829 211.645 247.3 211.029 247.636C210.423 247.963 209.751 248.126 209.013 248.126ZM209.013 246.74C209.424 246.74 209.807 246.642 210.161 246.446C210.525 246.25 210.819 245.956 211.043 245.564C211.267 245.172 211.379 244.696 211.379 244.136C211.379 243.576 211.272 243.105 211.057 242.722C210.843 242.33 210.558 242.036 210.203 241.84C209.849 241.644 209.466 241.546 209.055 241.546C208.645 241.546 208.262 241.644 207.907 241.84C207.562 242.036 207.287 242.33 207.081 242.722C206.876 243.105 206.773 243.576 206.773 244.136C206.773 244.967 206.983 245.611 207.403 246.068C207.833 246.516 208.369 246.74 209.013 246.74Z" fill="url(#paint2_linear_8865_6572)"/>
</g>
<path d="M92.9132 194V190.952L89.9972 185.6H91.4612L93.4772 189.404H93.6572L95.6732 185.6H97.1372L94.2212 190.952V194H92.9132ZM99.9124 194.168C99.3204 194.168 98.7924 194.048 98.3284 193.808C97.8724 193.56 97.5124 193.208 97.2484 192.752C96.9844 192.296 96.8524 191.756 96.8524 191.132V190.952C96.8524 190.328 96.9844 189.792 97.2484 189.344C97.5124 188.888 97.8724 188.536 98.3284 188.288C98.7924 188.04 99.3204 187.916 99.9124 187.916C100.504 187.916 101.032 188.04 101.496 188.288C101.96 188.536 102.324 188.888 102.588 189.344C102.852 189.792 102.984 190.328 102.984 190.952V191.132C102.984 191.756 102.852 192.296 102.588 192.752C102.324 193.208 101.96 193.56 101.496 193.808C101.032 194.048 100.504 194.168 99.9124 194.168ZM99.9124 193.064C100.456 193.064 100.896 192.892 101.232 192.548C101.576 192.196 101.748 191.712 101.748 191.096V190.988C101.748 190.372 101.58 189.892 101.244 189.548C100.908 189.196 100.464 189.02 99.9124 189.02C99.3764 189.02 98.9364 189.196 98.5924 189.548C98.2564 189.892 98.0884 190.372 98.0884 190.988V191.096C98.0884 191.712 98.2564 192.196 98.5924 192.548C98.9364 192.892 99.3764 193.064 99.9124 193.064ZM106.791 194.108C106.343 194.108 105.943 194.008 105.591 193.808C105.239 193.608 104.963 193.324 104.763 192.956C104.563 192.588 104.463 192.148 104.463 191.636V188.084H105.699V191.552C105.699 192.064 105.827 192.444 106.083 192.692C106.339 192.932 106.695 193.052 107.151 193.052C107.655 193.052 108.059 192.884 108.363 192.548C108.675 192.204 108.831 191.712 108.831 191.072V188.084H110.067V194H108.855V193.112H108.663C108.551 193.352 108.351 193.58 108.063 193.796C107.775 194.004 107.351 194.108 106.791 194.108ZM114.141 194L116.541 185.6H118.821L121.209 194H119.877L119.325 192.02H116.037L115.485 194H114.141ZM116.361 190.82H119.001L117.777 186.404H117.585L116.361 190.82ZM122.383 194V188.084H123.595V188.78H123.787C123.883 188.532 124.035 188.352 124.243 188.24C124.459 188.12 124.723 188.06 125.035 188.06H125.743V189.176H124.987C124.587 189.176 124.259 189.288 124.003 189.512C123.747 189.728 123.619 190.064 123.619 190.52V194H122.383ZM129.524 194.168C128.924 194.168 128.4 194.044 127.952 193.796C127.504 193.54 127.152 193.184 126.896 192.728C126.648 192.264 126.524 191.728 126.524 191.12V190.976C126.524 190.36 126.648 189.824 126.896 189.368C127.144 188.904 127.488 188.548 127.928 188.3C128.376 188.044 128.892 187.916 129.476 187.916C130.044 187.916 130.54 188.044 130.964 188.3C131.396 188.548 131.732 188.896 131.972 189.344C132.212 189.792 132.332 190.316 132.332 190.916V191.384H127.784C127.8 191.904 127.972 192.32 128.3 192.632C128.636 192.936 129.052 193.088 129.548 193.088C130.012 193.088 130.36 192.984 130.592 192.776C130.832 192.568 131.016 192.328 131.144 192.056L132.164 192.584C132.052 192.808 131.888 193.044 131.672 193.292C131.464 193.54 131.188 193.748 130.844 193.916C130.5 194.084 130.06 194.168 129.524 194.168ZM127.796 190.436H131.072C131.04 189.988 130.88 189.64 130.592 189.392C130.304 189.136 129.928 189.008 129.464 189.008C129 189.008 128.62 189.136 128.324 189.392C128.036 189.64 127.86 189.988 127.796 190.436ZM136.843 194V185.6H139.339L141.619 193.136H141.811V185.6H143.095V194H140.599L138.319 186.452H138.127V194H136.843ZM147.655 194.168C147.063 194.168 146.535 194.048 146.071 193.808C145.615 193.56 145.255 193.208 144.991 192.752C144.727 192.296 144.595 191.756 144.595 191.132V190.952C144.595 190.328 144.727 189.792 144.991 189.344C145.255 188.888 145.615 188.536 146.071 188.288C146.535 188.04 147.063 187.916 147.655 187.916C148.247 187.916 148.775 188.04 149.239 188.288C149.703 188.536 150.067 188.888 150.331 189.344C150.595 189.792 150.727 190.328 150.727 190.952V191.132C150.727 191.756 150.595 192.296 150.331 192.752C150.067 193.208 149.703 193.56 149.239 193.808C148.775 194.048 148.247 194.168 147.655 194.168ZM147.655 193.064C148.199 193.064 148.639 192.892 148.975 192.548C149.319 192.196 149.491 191.712 149.491 191.096V190.988C149.491 190.372 149.323 189.892 148.987 189.548C148.651 189.196 148.207 189.02 147.655 189.02C147.119 189.02 146.679 189.196 146.335 189.548C145.999 189.892 145.831 190.372 145.831 190.988V191.096C145.831 191.712 145.999 192.196 146.335 192.548C146.679 192.892 147.119 193.064 147.655 193.064ZM152.843 194L151.835 188.084H153.071L153.815 193.172H154.007L155.039 188.084H157.043L158.063 193.172H158.255L158.999 188.084H160.235L159.227 194H157.151L156.131 188.924H155.939L154.919 194H152.843ZM164.722 194V185.6H166.018V194H164.722ZM167.804 194V188.084H169.016V188.972H169.208C169.32 188.732 169.52 188.508 169.808 188.3C170.096 188.092 170.524 187.988 171.092 187.988C171.54 187.988 171.936 188.088 172.28 188.288C172.632 188.488 172.908 188.772 173.108 189.14C173.308 189.5 173.408 189.936 173.408 190.448V194H172.172V190.544C172.172 190.032 172.044 189.656 171.788 189.416C171.532 189.168 171.18 189.044 170.732 189.044C170.22 189.044 169.808 189.212 169.496 189.548C169.192 189.884 169.04 190.372 169.04 191.012V194H167.804ZM178.21 194V185.6H183.394V186.776H179.506V189.2H183.082V190.376H179.506V194H178.21ZM184.691 194V188.084H185.903V188.78H186.095C186.191 188.532 186.343 188.352 186.551 188.24C186.767 188.12 187.031 188.06 187.343 188.06H188.051V189.176H187.295C186.895 189.176 186.567 189.288 186.311 189.512C186.055 189.728 185.927 190.064 185.927 190.52V194H184.691ZM191.833 194.168C191.233 194.168 190.709 194.044 190.261 193.796C189.813 193.54 189.461 193.184 189.205 192.728C188.957 192.264 188.833 191.728 188.833 191.12V190.976C188.833 190.36 188.957 189.824 189.205 189.368C189.453 188.904 189.797 188.548 190.237 188.3C190.685 188.044 191.201 187.916 191.785 187.916C192.353 187.916 192.849 188.044 193.273 188.3C193.705 188.548 194.041 188.896 194.281 189.344C194.521 189.792 194.641 190.316 194.641 190.916V191.384H190.093C190.109 191.904 190.281 192.32 190.609 192.632C190.945 192.936 191.361 193.088 191.857 193.088C192.321 193.088 192.669 192.984 192.901 192.776C193.141 192.568 193.325 192.328 193.453 192.056L194.473 192.584C194.361 192.808 194.197 193.044 193.981 193.292C193.773 193.54 193.497 193.748 193.153 193.916C192.809 194.084 192.369 194.168 191.833 194.168ZM190.105 190.436H193.381C193.349 189.988 193.189 189.64 192.901 189.392C192.613 189.136 192.237 189.008 191.773 189.008C191.309 189.008 190.929 189.136 190.633 189.392C190.345 189.64 190.169 189.988 190.105 190.436ZM198.841 194.168C198.241 194.168 197.717 194.044 197.269 193.796C196.821 193.54 196.469 193.184 196.213 192.728C195.965 192.264 195.841 191.728 195.841 191.12V190.976C195.841 190.36 195.965 189.824 196.213 189.368C196.461 188.904 196.805 188.548 197.245 188.3C197.693 188.044 198.209 187.916 198.793 187.916C199.361 187.916 199.857 188.044 200.281 188.3C200.713 188.548 201.049 188.896 201.289 189.344C201.529 189.792 201.649 190.316 201.649 190.916V191.384H197.101C197.117 191.904 197.289 192.32 197.617 192.632C197.953 192.936 198.369 193.088 198.865 193.088C199.329 193.088 199.677 192.984 199.909 192.776C200.149 192.568 200.333 192.328 200.461 192.056L201.481 192.584C201.369 192.808 201.205 193.044 200.989 193.292C200.781 193.54 200.505 193.748 200.161 193.916C199.817 194.084 199.377 194.168 198.841 194.168ZM197.113 190.436H200.389C200.357 189.988 200.197 189.64 199.909 189.392C199.621 189.136 199.245 189.008 198.781 189.008C198.317 189.008 197.937 189.136 197.641 189.392C197.353 189.64 197.177 189.988 197.113 190.436ZM207.823 194V186.776H205.243V185.6H211.699V186.776H209.119V194H207.823ZM212.043 194V188.084H213.255V188.78H213.447C213.543 188.532 213.695 188.352 213.903 188.24C214.119 188.12 214.383 188.06 214.695 188.06H215.403V189.176H214.647C214.247 189.176 213.919 189.288 213.663 189.512C213.407 189.728 213.279 190.064 213.279 190.52V194H212.043ZM216.683 194V188.084H217.919V194H216.683ZM217.307 187.28C217.067 187.28 216.863 187.204 216.695 187.052C216.535 186.892 216.455 186.688 216.455 186.44C216.455 186.192 216.535 185.992 216.695 185.84C216.863 185.68 217.067 185.6 217.307 185.6C217.555 185.6 217.759 185.68 217.919 185.84C218.079 185.992 218.159 186.192 218.159 186.44C218.159 186.688 218.079 186.892 217.919 187.052C217.759 187.204 217.555 187.28 217.307 187.28ZM221.59 194.168C221.166 194.168 220.786 194.096 220.45 193.952C220.122 193.808 219.858 193.596 219.658 193.316C219.466 193.036 219.37 192.696 219.37 192.296C219.37 191.888 219.466 191.552 219.658 191.288C219.858 191.016 220.126 190.812 220.462 190.676C220.806 190.54 221.194 190.472 221.626 190.472H223.426V190.088C223.426 189.744 223.322 189.468 223.114 189.26C222.906 189.052 222.586 188.948 222.154 188.948C221.73 188.948 221.406 189.048 221.182 189.248C220.958 189.448 220.81 189.708 220.738 190.028L219.586 189.656C219.682 189.336 219.834 189.048 220.042 188.792C220.258 188.528 220.542 188.316 220.894 188.156C221.246 187.996 221.67 187.916 222.166 187.916C222.934 187.916 223.538 188.112 223.978 188.504C224.418 188.896 224.638 189.452 224.638 190.172V192.608C224.638 192.848 224.75 192.968 224.974 192.968H225.478V194H224.554C224.274 194 224.046 193.928 223.87 193.784C223.694 193.64 223.606 193.444 223.606 193.196V193.16H223.426C223.362 193.28 223.266 193.42 223.138 193.58C223.01 193.74 222.822 193.88 222.574 194C222.326 194.112 221.998 194.168 221.59 194.168ZM221.77 193.148C222.266 193.148 222.666 193.008 222.97 192.728C223.274 192.44 223.426 192.048 223.426 191.552V191.432H221.698C221.37 191.432 221.106 191.504 220.906 191.648C220.706 191.784 220.606 191.988 220.606 192.26C220.606 192.532 220.71 192.748 220.918 192.908C221.126 193.068 221.41 193.148 221.77 193.148ZM226.679 194V185.6H227.915V194H226.679Z" fill="#F6F8FE"/>
<g clip-path="url(#clip1_8865_6572)">
<g filter="url(#filter0_d_8865_6572)">
<path d="M158.838 154H143.163L136.855 141.285L131.533 139.178L117.653 143.914L106.567 133.331L111.528 120.082L109.32 115.002L96 108.981V94.0187L109.32 87.9977L111.527 82.9179L106.567 69.6688L117.653 59.0866L131.541 63.8249L136.851 61.7245L143.163 49H158.838L165.149 61.7245L170.459 63.8249L184.347 59.0866L195.433 69.6688L190.472 82.9181L192.68 87.9977L206 94.0185V108.981L192.68 115.002L190.473 120.082L195.433 133.331L184.347 143.913L170.467 139.178L165.145 141.285L158.838 154Z" fill="url(#paint3_linear_8865_6572)"/>
<path d="M164.751 121.187H137.251V98.2183H122.902L151.001 66.9287L179.099 98.2183H164.751V121.187Z" fill="#F6F8FE"/>
<path d="M157.875 127.75H164.75V134.312H157.875V127.75ZM137.25 127.75H144.125V134.312H137.25V127.75Z" fill="white"/>
</g>
</g>
<defs>
<filter id="filter0_d_8865_6572" x="92" y="49" width="118" height="113" filterUnits="userSpaceOnUse" color-interpolation-filters="sRGB">
<feFlood flood-opacity="0" result="BackgroundImageFix"/>
<feColorMatrix in="SourceAlpha" type="matrix" values="0 0 0 0 0 0 0 0 0 0 0 0 0 0 0 0 0 0 127 0" result="hardAlpha"/>
<feOffset dy="4"/>
<feGaussianBlur stdDeviation="2"/>
<feComposite in2="hardAlpha" operator="out"/>
<feColorMatrix type="matrix" values="0 0 0 0 0.980769 0 0 0 0 0.980769 0 0 0 0 0.980769 0 0 0 0.25 0"/>
<feBlend mode="normal" in2="BackgroundImageFix" result="effect1_dropShadow_8865_6572"/>
<feBlend mode="normal" in="SourceGraphic" in2="effect1_dropShadow_8865_6572" result="shape"/>
</filter>
<linearGradient id="paint0_linear_8865_6572" x1="366.727" y1="193.868" x2="-20.9062" y2="224.244" gradientUnits="userSpaceOnUse">
<stop stop-color="#504999"/>
<stop offset="1" stop-color="#44A199"/>
</linearGradient>
<linearGradient id="paint1_linear_8865_6572" x1="366.727" y1="193.868" x2="-20.9062" y2="224.244" gradientUnits="userSpaceOnUse">
<stop stop-color="#504999"/>
<stop offset="1" stop-color="#44A199"/>
</linearGradient>
<linearGradient id="paint2_linear_8865_6572" x1="264.52" y1="243.543" x2="96.5882" y2="296.676" gradientUnits="userSpaceOnUse">
<stop stop-color="#504999"/>
<stop offset="1" stop-color="#44A199"/>
</linearGradient>
<linearGradient id="paint3_linear_8865_6572" x1="231.368" y1="101.716" x2="81.2359" y2="109.457" gradientUnits="userSpaceOnUse">
<stop stop-color="#504999"/>
<stop offset="1" stop-color="#44A199"/>
</linearGradient>
<clipPath id="clip0_8865_6572">
<rect width="128" height="20" fill="white" transform="translate(96 233)"/>
</clipPath>
<clipPath id="clip1_8865_6572">
<rect width="110" height="110" fill="white" transform="translate(96 49)"/>
</clipPath>
</defs>
</svg>
